<?xml version="1.0" encoding="UTF-8" standalone="no"?>
<!-- Created with Inkscape (http://www.inkscape.org/) -->

<svg
   xmlns:dc="http://purl.org/dc/elements/1.1/"
   xmlns:cc="http://creativecommons.org/ns#"
   xmlns:rdf="http://www.w3.org/1999/02/22-rdf-syntax-ns#"
   xmlns:svg="http://www.w3.org/2000/svg"
   xmlns="http://www.w3.org/2000/svg"
   xmlns:sodipodi="http://sodipodi.sourceforge.net/DTD/sodipodi-0.dtd"
   xmlns:inkscape="http://www.inkscape.org/namespaces/inkscape"
   version="1.1"
   id="svg2"
   xml:space="preserve"
   width="720.29333"
   height="459.94666"
   viewBox="0 0 720.29333 459.94666"
   sodipodi:docname="rainer_skate.svg"
   inkscape:version="0.92.2 5c3e80d, 2017-08-06"><metadata
     id="metadata8"><rdf:RDF><cc:Work
         rdf:about=""><dc:format>image/svg+xml</dc:format><dc:type
           rdf:resource="http://purl.org/dc/dcmitype/StillImage" /><dc:title></dc:title></cc:Work></rdf:RDF></metadata><defs
     id="defs6" /><sodipodi:namedview
     pagecolor="#ffffff"
     bordercolor="#666666"
     borderopacity="1"
     objecttolerance="10"
     gridtolerance="10"
     guidetolerance="10"
     inkscape:pageopacity="0"
     inkscape:pageshadow="2"
     inkscape:window-width="1241"
     inkscape:window-height="628"
     id="namedview4"
     showgrid="false"
     inkscape:zoom="1.026206"
     inkscape:cx="305.8661"
     inkscape:cy="220.69909"
     inkscape:window-x="0"
     inkscape:window-y="0"
     inkscape:window-maximized="0"
     inkscape:current-layer="g10" /><g
     id="g10"
     inkscape:groupmode="layer"
     inkscape:label="ink_ext_XXXXXX"
     transform="matrix(1.3333333,0,0,-1.3333333,0,459.94667)"><path
       d="m 1204.51,1447.19 c 0.28,0.36 0.84,0.75 0.79,1.07 -0.05,0.4 -0.54,0.98 -0.92,1.06 -1.05,0.21 -1.25,-0.57 -0.99,-1.33 0.13,-0.36 0.74,-0.54 1.12,-0.8 z m 180.67,-457.811 c -0.14,-0.117 -0.38,-0.238 -0.38,-0.348 -0.03,-0.511 -0.08,-1.039 0.06,-1.5 0.2,-0.601 0.5,-0.449 0.51,0.391 0.02,0.476 -0.13,0.969 -0.19,1.457 z M 599.855,1891.47 c 1.196,-0.21 1.833,0.31 1.942,1.23 0.055,0.43 -0.293,1.1 -0.652,1.33 -0.797,0.51 -1.598,0.23 -1.93,-0.66 -0.309,-0.83 -0.106,-1.6 0.64,-1.9 z m -231.691,-78.28 c 0.57,-0.28 0.992,-0.66 1.41,-0.64 0.879,0.01 1.578,0.51 1.688,1.41 0.066,0.7 -0.469,1.02 -1.11,0.66 -0.687,-0.37 -1.285,-0.91 -1.988,-1.43 z m 1334.126,-43.36 c -0.43,0.14 -0.94,0.48 -1.28,0.37 -0.46,-0.16 -0.92,-0.62 -1.12,-1.07 -0.28,-0.59 0.11,-0.96 0.81,-0.82 0.83,0.16 1.46,0.61 1.59,1.52 z M 1273.92,919.742 c 1.03,-0.07 1.47,0.629 1.61,1.399 0.07,0.359 -0.38,1.101 -0.71,1.16 -0.95,0.219 -1.42,-0.492 -1.45,-1.309 -0.02,-0.433 0.38,-0.89 0.55,-1.25 z m 553.87,984.708 c 1.17,0.44 1.37,1.54 1.51,2.54 0.1,0.81 -0.39,1.75 -1.26,1.02 -0.71,-0.61 -0.96,-1.79 -1.29,-2.78 -0.04,-0.12 0.68,-0.51 1.04,-0.78 z M 485.961,1835.63 c -0.723,0.17 -1.512,0.52 -2.277,0.48 -0.848,-0.03 -1.813,-0.49 -1.5,-1.55 0.281,-0.95 1.273,-0.99 2.148,-0.77 0.836,0.21 1.586,0.56 1.629,1.84 z m 647.029,1.76 c 0.3,-3.38 0.42,-4.7 0.57,-6.38 0.7,1.78 0.76,3.2 -0.57,6.38 z m 328.83,-291.34 c 1.65,2.9 2.1,5.03 0.23,7.67 -2.38,-2.56 -3.23,-4.58 -0.23,-7.67 z m -701.492,710.04 c 0.399,0.19 0.777,0.25 0.871,0.45 0.735,1.54 1.399,3.13 1.09,4.9 -0.039,0.23 -0.391,0.64 -0.527,0.6 -1.965,-0.42 -1.449,-2.16 -1.68,-3.43 -0.141,-0.79 0.145,-1.65 0.246,-2.52 z M 164.984,1725.78 c 1.664,-1.21 3.196,-0.52 4.661,0.35 0.703,0.42 1.539,1.08 0.793,1.93 -0.465,0.53 -1.59,1.04 -2.153,0.83 -1.449,-0.54 -3.367,-0.85 -3.301,-3.11 z m 1195.406,-268.6 c 2.21,0.53 3.91,1.52 3.74,4.27 -0.02,0.37 -0.8,1.02 -1.19,0.99 -2.58,-0.19 -2.66,-2.41 -3.18,-4.23 -0.05,-0.17 0.26,-0.46 0.63,-1.03 z m -658.085,483.23 c -2.754,1.97 -4.278,0.26 -5.86,-0.79 -0.593,-0.4 -1.468,-1.08 0.102,-2.26 1.359,1.59 4.156,0.35 5.758,3.05 z M 416.688,1797.69 c 3.031,0.42 6.273,-1.18 7.945,1.9 0.176,0.34 -0.067,1.24 -0.363,1.41 -3.34,1.8 -4.735,-1.71 -7.063,-2.68 -0.227,-0.09 -0.352,-0.41 -0.519,-0.63 z m 96.046,51.1 c -3.23,-0.4 -7.035,0.04 -9.105,-4.58 4.496,-0.48 6.543,2.53 9.105,4.58 z m 303.668,610.93 c 3.434,3.66 5.766,7.77 5.993,12.81 -3.903,-3.38 -4.911,-8.15 -5.993,-12.81 z m 315.768,-612.04 c -1.74,7.49 -0.55,15.52 -4.19,24.69 -1.35,-9.96 1.63,-17.3 4.19,-24.69 z m 229.15,-415.33 c 6.85,7.38 9.29,12.31 8.54,17.35 -4.46,-4.25 -7.2,-9.82 -8.54,-17.35 z m -532.058,494.02 c -0.949,-5.97 2.277,-9.29 4.875,-12.56 1.676,-2.12 3.504,0.01 4.929,1.22 1.379,1.18 0.973,2.53 -0.214,3.53 -2.891,2.46 -5.883,4.8 -9.59,7.81 z m -43.672,87.15 c 2.336,2.21 1.453,4.21 0.558,5.77 -2.32,3.99 -3.957,8.16 -4.546,12.74 -0.25,1.89 -1.258,3.57 -3.274,2.75 -1.879,-0.77 -1.598,-2.95 -0.89,-4.49 2.582,-5.56 5.351,-11.03 8.152,-16.77 z m -34.805,238.26 c 1.895,8.25 3.453,15 5.098,22.17 -9.5,-4.84 -11.028,-10.71 -5.098,-22.17 z m 22.438,112.01 c -0.582,0.2 -1.157,0.42 -1.739,0.63 -1.996,-5.19 -4.257,-10.29 -5.925,-15.58 -2.77,-8.86 -2.528,-11.32 0.812,-15.64 2.434,10.43 5.746,20.27 6.852,30.59 z m 715.487,-621.85 c -5.12,-9.16 -6.56,-22.73 -3.37,-30.54 6.19,10.26 2.83,20.66 3.37,30.54 z m -726.69,506.6 c -7.657,-8.76 -7.887,-24.1 -1.047,-30.06 3.34,9.96 -1.035,20.09 1.047,30.06 z m 497.78,-886.58 c -6.19,-9.43 -5.51,-18.43 -5.07,-27.31 0.1,-2.28 1.57,-3.97 4.29,-4.15 2.82,10.19 2.85,19.99 0.78,31.46 z M 835.77,2551.13 c 5.89,7.58 12.546,14.49 18.015,22.38 5.332,7.68 11.985,14.45 18.067,21.62 -0.625,0.5 -1.262,0.99 -1.879,1.5 -11.93,-14.79 -27.715,-26.51 -34.203,-45.5 z m -4.571,-662.47 c 0,-11 16.18,-35.03 27.184,-40.39 -10.551,12.45 -17.84,27.02 -27.184,40.39 z m -299.125,-13.63 c 8.438,-1.28 16.106,-0.56 22.922,4.07 6.211,4.21 15.527,2.8 19.559,11.19 -13.832,-3.51 -26.856,-9.56 -40.821,-12.38 -0.98,-0.2 -1.859,-1.27 -1.66,-2.88 z m 400.09,-79.98 c 0.441,-4.19 1.973,-5.24 3.5,-6.63 4.863,-4.44 11.402,-5.66 16.672,-9.35 6.242,-4.37 12.809,-8.4 19.633,-11.8 4.301,-2.13 8.64,-5.45 16.211,-3.67 -19.606,10.35 -37.891,19.5 -56.016,31.45 z m 330.256,-739.93 c -1.04,-9.45 -4.38,-18.64 -2.82,-28.34 0.68,-4.15 0.91,-8.48 -0.45,-12.69 -0.54,-1.66 -0.24,-3.38 0.41,-5.02 0.45,-1.12 1.17,-2.12 2.34,-2.2 1.17,-0.09 2.21,0.71 2.54,1.88 0.87,2.96 1.59,5.8 1.34,9.1 -0.43,5.53 -2.92,10.93 -1.68,16.49 1.6,7.11 -0.62,13.81 -1.68,20.78 z m -248.16,1661.46 c -13.38,-7.36 -27.108,-14.16 -37.479,-26.73 6.895,-2.46 11.449,-0.45 15.231,4.07 4.929,5.89 10.628,10.98 16.538,15.87 2.27,1.87 4.72,3.62 5.71,6.79 z M 594.508,1889.02 c -13.985,-2.26 -25.035,-11.12 -37.5,-16.77 -12.649,-5.73 -26.07,-10.12 -36.528,-19.96 25.196,11.21 50.426,22.3 74.028,36.73 z m 155.062,394.87 c 2.473,3.98 7.981,1.89 9.95,4.96 2.222,3.44 -0.024,8.26 1.515,12.34 0.492,1.29 0.641,2.77 0.66,4.17 0.067,5.24 0.2,10.53 -4.179,16.28 -5.246,-12.61 -7.809,-24.63 -7.946,-37.75 z m 335.18,482.37 c -14.35,-2.13 -50.3,-25.07 -53.96,-33.26 5.85,1.14 11.28,1.69 15.13,6.67 1.52,1.96 3.68,3.55 5.8,4.92 7.85,5.07 15.83,9.91 23.68,14.95 3.23,2.08 6.24,4.48 9.35,6.72 z M 1267,1217.79 c -1.89,-3.59 -2.01,-6.69 -2.15,-9.82 -0.77,-18.07 -1.61,-36.15 -2.38,-54.21 -0.07,-1.47 0.25,-3.01 2.09,-3.06 1.25,-0.04 2.22,1.25 2.05,2.25 -1.12,6.21 2.75,11.29 3.6,17.06 1.5,10.24 0.55,20.43 -0.52,30.56 -0.59,5.55 0.6,11.44 -2.69,17.22 z m 220.04,482.24 c -0.05,0.65 -0.06,1.79 -0.21,2.92 -0.22,1.51 -1.04,2.99 -2.54,2.96 -1.62,-0.04 -2.03,-1.73 -2.23,-3.19 -0.09,-0.56 -0.12,-1.12 -0.18,-1.69 -0.92,-9.86 -2.2,-19.7 -2.69,-29.57 -0.51,-10.52 -1.89,-20.96 -2.36,-31.45 -0.48,-10.59 1.46,-21.47 -7.71,-29.84 -1.35,-1.22 -1.32,-3.96 0.33,-5.5 1.57,-1.48 3.1,0.27 4.62,0.82 5.72,2.08 4.93,7.42 5.05,11.61 0.39,13.7 2.82,27.18 3.7,40.81 0.88,13.94 2.52,27.77 4.22,42.12 z m -258.13,-352.06 c 4.75,7.17 9.3,12.13 7.3,19.32 -2.05,7.36 -3.9,14.8 -6.62,21.91 -2.22,5.86 -4.53,11.58 -5.13,17.88 -0.26,2.7 -5.8,12.77 -7.9,14.66 3.19,-24.2 7.7,-47.94 12.35,-73.77 z m -427.738,843.48 c 0.601,0 1.195,0 1.797,0 -3.418,15.65 1.547,30.55 2.504,45.84 0.98,15.59 6.16,30.7 6.773,46.45 -3.152,0.3 -3.793,-1.66 -4.226,-3.09 -3.403,-11.32 -7.336,-22.56 -9.743,-34.1 -3.722,-17.76 -0.722,-35.6 1.328,-53.35 0.075,-0.63 1.024,-1.16 1.567,-1.75 z m 66.363,365.25 c 7.27,6.28 12.32,12.45 17.774,18.1 5.226,5.41 9.277,12.09 14.527,17.66 5.691,6.02 6.609,14.37 10.633,21.18 3.769,6.38 10.594,11.34 9.699,20.8 -20.832,-17.98 -47.07,-58.17 -52.633,-77.74 z M 205.156,1772.76 c 5.114,-1.47 7.465,0.99 9.391,3.05 12.57,13.47 28.105,23.85 39.867,38.11 3.656,4.43 9.164,7.06 12.316,11.42 7.54,10.48 17.454,18.55 25.997,27.98 1.554,1.7 3.66,3.13 3.828,6.34 -34.871,-24.66 -63.117,-54.99 -91.399,-86.9 z m 590.625,565.57 c 0,1.56 0.496,3.74 -1.718,4.86 -1.875,0.96 -3.063,-0.82 -4.512,-1.54 -4.219,-2.11 -5.883,-6.28 -6.985,-10.21 -1.738,-6.29 -3.918,-12.42 -5.757,-18.64 -4.067,-13.69 -1.821,-19.67 9.054,-27.03 4.278,-2.89 5.575,-2.47 5.785,2.29 0.778,16.68 1.207,33.37 4.133,50.27 z m 358.849,465.6 c 9.22,2.76 18.29,6.05 28.05,4.86 4.38,-0.52 8.46,0.26 12.61,1.51 14.42,4.31 28.99,8 44.08,9.13 4.26,0.3 8.53,0.53 12.77,1.04 3.15,0.38 3.92,2.9 4.25,5.58 0.24,1.92 -0.23,3.55 -2.4,3.75 -9.03,0.8 -17.97,3.2 -27.14,1.34 -9.97,-2 -19.88,-3.47 -29.47,-7.69 -8.21,-3.63 -17.28,-5.72 -25.19,-10.15 -5.77,-3.21 -12.27,-5.05 -17.56,-9.37 z m -799.767,-995.5 c -5.093,0.39 -8.461,-1.16 -11.855,-2.51 -8.977,-3.56 -17.778,-7.58 -26.914,-10.6 -7.856,-2.61 -15.328,-6.1 -22.539,-9.86 -16.336,-8.48 -33.418,-15.4 -49.969,-23.38 -15.234,-7.35 -30.602,-14.65 -46.004,-21.75 -7.102,-3.29 -13.937,-7.17 -21.598,-11.16 3.821,-1.42 6.352,-0.32 9.051,0.64 9.86,3.49 19.028,8.58 29.063,11.75 13.242,4.19 25.668,10.76 39.269,14.02 3,0.71 5.156,2.22 6.164,5.23 0.953,2.88 3.008,4.34 5.817,5.67 7.113,3.39 14.511,6.27 20.722,11.42 2.348,1.95 5.43,3.1 8.582,3.6 6.016,0.95 11.254,3.91 16.661,6.42 9.464,4.38 18.621,9.37 28.582,12.76 4.851,1.65 10.691,2.07 14.968,7.75 z m 767.787,968.89 c -1.53,1.35 -2.31,1.23 -3.19,1.08 -6.52,-1.16 -10.7,-6.1 -15.83,-9.52 -14.13,-9.4 -28.86,-17.86 -42.84,-27.53 -19.1,-13.23 -38.1,-26.51 -54.66,-42.97 -7.165,-7.12 -7.345,-6.96 1.81,-10.2 1.34,-0.47 2.54,-1.3 3.87,-1.8 7.12,-2.68 10.09,-1.21 12.19,6.06 2.92,10.2 9.23,18.57 16.86,25.17 8.52,7.35 17.15,14.73 26.27,21.39 7.1,5.2 14.14,10.49 21.4,15.43 11.18,7.6 22.9,14.39 34.12,22.89 z M 779.363,2348.48 c 4.774,2.85 8.817,5.39 13.883,5.33 2.598,-0.02 3.399,2.22 4.527,4.36 2.575,4.91 0.504,10.16 1.696,15.01 4.734,19.27 5.433,39.43 12.894,58.08 0.309,0.76 0.391,1.67 0.356,2.5 -0.082,1.84 -1.16,2.55 -2.793,1.71 -1.227,-0.63 -2.84,-1.42 -3.281,-2.54 -3.016,-7.71 -8.598,-14.04 -11.684,-21.66 -6.895,-17.09 -11.145,-35.02 -16.137,-52.71 -0.863,-3.02 -0.941,-6.15 0.539,-10.08 z m 931.177,-561.91 c 0.67,-0.56 0.96,-0.95 1.11,-0.9 9.85,3.39 18.91,9.1 29.56,10.31 1,0.1 1.95,1.09 2.86,1.77 16.95,12.5 32.37,26.67 46.19,42.58 2.41,2.78 4.49,5.8 7.14,8.42 2.2,2.2 2.03,5.48 0.03,7.8 -2.27,2.65 -4.71,0.69 -6.7,-0.87 -2.24,-1.74 -4.37,-3.65 -6.37,-5.66 -19.28,-19.35 -40.66,-36.22 -62.07,-53.09 -4.07,-3.21 -8.63,-6.01 -11.75,-10.36 z M 420.238,1964.89 c -3.23,-0.99 -5.156,-1.44 -6.957,-2.19 -0.992,-0.44 -1.797,-1.35 -2.617,-2.14 -18.785,-18.07 -39.859,-33.64 -57.008,-53.6 -12.168,-14.16 -25.808,-27.06 -38.769,-40.54 -1.332,-1.4 -3.157,-2.59 -2.625,-4.97 4.984,-0.52 9.008,-0.04 10.781,2.31 4.863,6.48 11.187,11.1 17.562,15.92 3.278,2.48 7.29,4.71 9.551,8.23 4.032,6.28 10.078,10.53 14.934,15.97 11.086,12.42 23.379,23.69 34.312,36.3 4.055,4.67 7.27,10.32 12.43,13.88 3.715,2.56 5.844,5.93 8.406,10.83 z m 109.485,-97.93 c -10.285,-0.36 -19.84,-3.66 -28.293,-8.02 -12.215,-6.32 -25.575,-9.08 -37.922,-14.87 -9.078,-4.25 -18.574,-8.14 -28.278,-11.36 -13.042,-4.33 -23.847,-14.12 -37.863,-16.56 -1.054,-0.18 -2.086,-0.97 -2.949,-1.7 -8.047,-6.73 -18.125,-9.79 -27.621,-12.62 -12.145,-3.63 -23.223,-9.16 -34.695,-14.07 -10.094,-4.32 -19.219,-10.87 -30.715,-12.09 -4.051,-0.43 -8.289,-3.11 -12.145,-7.35 7.406,-1.4 12.453,1.94 17.629,4.28 6.984,3.16 13.567,7.38 20.758,9.93 15.785,5.58 31.023,12.36 46.402,18.92 5.696,2.42 11.688,4.21 17.242,7.06 1.465,0.75 3.715,1.73 4.79,1.15 3.98,-2.21 7.136,0.08 10.578,1.11 9.839,2.94 18.797,7.78 28.023,12.18 21.797,10.38 44.027,19.87 66.004,29.91 9.793,4.47 19.375,9.39 29.055,14.1 z m 302.472,514.72 c 0.797,16.74 9.055,31.13 12.625,46.83 2.387,10.54 5.524,21.25 9.266,31.6 1.949,5.35 0.492,7.27 -5.023,8.06 -8.278,1.18 -17.668,-5.07 -20.454,-13.13 -2.562,-7.4 -1.699,-15.2 -3.136,-22.67 -2.403,-12.41 -1.621,-24.76 0.168,-37.04 0.699,-4.78 2.257,-9.77 6.554,-13.65 z m -36.715,61.53 c 2.102,2.9 3.958,4.93 5.282,7.51 4.551,8.8 9.004,17.67 14.14,26.12 11.188,18.39 22.36,36.75 30.266,56.88 4.703,12 9.82,23.83 14.75,35.73 -6.402,-3.96 -10.074,-10.02 -14.27,-15.56 -8.386,-11.04 -17.101,-21.88 -23.222,-34.51 -2.953,-6.11 -8.106,-11.16 -9.844,-17.84 -1.937,-7.44 -6.531,-13.65 -9.535,-20.54 -4.102,-9.43 -6.609,-18.99 -8.777,-28.81 -0.586,-2.67 -1.165,-5.56 1.21,-8.98 z m 40.649,31.02 c 5.223,1.97 10.34,3.19 15.84,2.64 6.801,-0.68 7.656,0.04 9.418,6.88 6.597,25.64 17.019,49.95 25.664,74.88 0.668,1.94 2.457,3.92 0.277,6.05 -24.324,-15.56 -50.703,-65.06 -51.199,-90.45 z M 1429.85,1344.44 c 2.09,0.43 2.39,1.55 2.51,2.68 1.33,12.1 4.69,23.85 7.03,35.77 2.93,15.03 6.92,29.82 8.5,45.17 1.14,10.99 3.01,21.94 5.15,32.8 3.03,15.33 6.79,30.53 8.11,46.16 0.83,9.89 1.19,19.84 1.71,29.77 0.08,1.65 0.31,3.91 -1.97,3.99 -1.94,0.07 -2.44,-1.98 -2.61,-3.74 -0.11,-1.13 -0.03,-2.28 -0.21,-3.4 -1.67,-10.94 -2.99,-21.96 -4.8,-32.83 -2.61,-15.54 -7.91,-30.5 -11.04,-46.02 -2.62,-13.04 -5.37,-26.13 -8.05,-39.16 -4.19,-20.51 -6.36,-41.45 -7.09,-62.45 -0.11,-3.36 0.07,-6.64 2.76,-8.74 z m -228.83,169.93 c 1.77,1.18 1.44,2.98 1.24,4.63 -1.87,15.78 -1.83,31.69 -4.05,47.5 -2.67,18.92 -7.42,37.33 -11.57,55.88 -2.15,9.65 -5.93,18.95 -7.98,28.7 -1.16,5.48 -4.46,10.02 -7.43,15.82 -2.55,-9.12 0.43,-16.61 0.82,-24.21 0.71,-13.88 1.76,-27.87 4.52,-41.44 3.27,-16.05 6.37,-32.1 8.44,-48.34 1.18,-9.07 4.53,-17.69 5.64,-26.66 0.86,-6.9 3.27,-11.08 10.37,-11.88 z m 675.82,458.12 c -0.38,0.36 -0.56,0.67 -0.8,0.72 -0.53,0.12 -1.08,0.11 -1.62,0.13 -5.77,0.27 -6.61,1.34 -3.36,5.43 3.51,4.4 5.24,9.36 6.62,14.6 2.41,9.21 5.93,18.3 6.86,27.66 0.69,6.79 2.83,14.5 -1.86,21.15 -0.72,-0.32 -1.44,-0.41 -1.66,-0.79 -0.71,-1.22 -1.42,-2.49 -1.78,-3.83 -4.7,-17.36 -12.08,-33.65 -19.82,-49.81 -4.53,-9.44 -9.31,-18.79 -13.32,-28.46 -4.77,-11.55 -8.94,-23.35 -13.17,-35.12 -1.28,-3.57 -4.84,-8.08 2.53,-9.77 1.42,-0.32 0.96,-2.4 0.92,-3.82 -0.06,-1.5 -1.4,-3.29 1.56,-4.92 13.17,21.92 26.82,43.53 38.9,66.83 z m -1058.945,444.1 c -3.094,-1.51 -3.618,-3.54 -4.082,-5.39 -2.25,-9.05 -5.063,-18.04 -6.333,-27.24 -1.75,-12.63 -4.73,-25.12 -4.992,-37.99 -0.117,-5.35 -1.047,-10.72 -1.992,-16 -2.281,-12.94 -2.219,-26.02 -2.992,-39.05 -0.133,-2.27 0.363,-4.36 3.312,-5.41 4.118,8.12 7.895,16.07 13.278,22.97 3.246,4.19 5.539,8.59 6.195,13.78 1.938,15.22 5.535,30.1 8.891,45.04 1.129,5.04 0.172,10.19 -2.446,13.82 -5.464,7.59 -6.836,15.91 -7.187,24.71 -0.129,3.39 -0.684,6.65 -1.652,10.76 z m -37.872,-346.4 c -0.847,7.14 -0.218,14.27 -1.316,21.17 -2.676,17 -1.094,34.01 -1.012,51.02 0.039,8.27 2.332,16.45 2.047,24.57 -0.445,12.4 1.649,24.44 3.719,36.41 3.473,20 7.023,39.94 7.848,60.26 0.55,13.57 0.57,13.57 -11.664,17.67 -5.473,1.83 -5.528,1.81 -6.77,-3.69 -1.707,-7.6 -0.379,-15.31 -0.746,-22.95 -0.711,-14.8 -0.762,-29.64 -1.617,-44.42 -0.332,-5.65 -0.242,-10.76 3.726,-15.17 1.106,-1.24 2.285,-2.28 1,-4.36 -4.105,-6.7 -5.008,-14.56 -5.183,-21.92 -0.696,-29.05 0.675,-58.04 6.316,-86.65 0.797,-4.06 -0.695,-8.7 3.652,-11.94 z m 217.629,653.34 c -2.027,1.65 -3.937,0.69 -5.562,-0.38 -10.746,-7.09 -22.91,-11.32 -34.348,-16.98 -28.047,-13.85 -55.324,-29.01 -81.945,-45.38 -9.281,-5.71 -17.711,-12.46 -23.887,-21.59 -9.746,-14.38 -8.98,-25.18 1.309,-37.18 4.933,-5.75 5.039,-5.71 10.351,-0.22 19.707,20.41 39.496,40.74 61.43,58.81 15.121,12.47 30.465,24.67 45.699,37 2.856,2.31 6.918,3.12 8.848,6.51 2.949,5.16 7.648,8.31 12.25,11.7 2.668,1.95 5.832,3.68 5.855,7.71 z m 881.638,-386.22 c -1.53,-1.34 -1.56,-2.5 -1.43,-3.61 3.57,-29.81 3.21,-59.54 -0.98,-89.29 -2.04,-14.43 -6.2,-28.21 -11.47,-41.71 -2.24,-5.73 -5.3,-10.84 -12.49,-11.26 -3.01,-0.17 -3.62,-2.18 -3.51,-4.76 0.22,-5.39 0.07,-10.78 -0.9,-16.08 -3.33,-18.1 -5.91,-36.29 -8.05,-54.56 -1.15,-9.83 -2.29,-19.79 -4.9,-29.28 -2.8,-10.12 -3.04,-20.7 -6.4,-30.65 -0.07,-0.2 0.69,-0.68 1.07,-1.04 1.65,0.01 2.82,1.15 3.31,2.35 4.01,9.68 11.16,17.51 15.12,27.39 5.57,13.9 14.87,26 20.51,40.06 7.3,18.21 15.32,36.17 17.89,55.78 1.44,10.97 0.95,22.17 2.3,33.15 1.53,12.43 0.17,24.88 1.24,37.28 0.16,1.97 0,4.01 -0.36,5.96 -2.38,13.38 -3.58,26.85 -2.52,40.4 0.33,4.35 0.34,8.59 -1.02,12.61 -2.27,6.77 -2.91,13.87 -4.7,20.72 -0.57,2.17 -0.7,4.5 -2.71,6.54 z M 1322.98,852.25 c 2.84,4.031 1.97,7.82 3.75,10.719 7.12,11.59 13.56,23.523 22.72,33.82 6.97,7.84 14.95,14.731 21.15,23.262 2.09,2.91 3.48,5.668 2.77,9.449 -2,10.582 -2.13,21.262 -2.38,32.031 -0.41,19.051 -1.58,38.09 -2.17,57.159 -0.12,4.26 -1.32,8.54 -0.18,12.75 2.1,7.68 -0.83,16.06 3.4,23.45 0.46,0.8 0.05,2.23 -0.24,3.31 -3.81,13.63 -2.93,27.5 -2.49,41.4 0.35,10.5 0.2,21.02 -0.12,31.52 -0.29,9.28 -2.17,18.63 -1.47,27.8 1.73,23.01 1.51,46.07 2.16,69.09 0.54,19.33 1.33,38.67 1.51,57.99 0.15,15.04 0.62,30.15 -1.24,45.2 -0.65,5.27 -1.01,10.67 0.87,16.01 0.9,2.58 0.86,5.71 0.45,8.46 -2.05,13.47 -0.95,27.03 -1.25,40.54 -0.16,7.39 -1.58,14.69 -1.17,22.09 0.05,1.07 0.03,2.38 -1.37,2.77 -1.6,0.45 -3.03,-0.25 -3.49,-1.68 -2.35,-7.46 -8.05,-13.02 -11.23,-20 -1.4,-3.09 -3.12,-6.06 -4.23,-9.25 -3.98,-11.38 -6.1,-23.28 -10.2,-34.66 -2.6,-7.21 -3.57,-14.92 -5.48,-22.36 -1.72,-6.74 -2.72,-14.08 0.97,-20.87 0.86,-1.6 3.28,-3.23 0.94,-5.1 -1.96,-1.55 -4.34,-0.9 -6.48,0.18 -2.16,1.08 -3.43,2.86 -4.28,5.1 -0.82,2.15 -2.45,3.4 -4.64,1.87 -3.79,-2.62 -5.18,-0.13 -6.19,2.78 -2.63,7.59 -5.77,15.1 -8.75,22.46 -4.49,11.13 -7.49,22.58 -11.09,33.91 -3.43,10.81 -6.42,21.76 -9.79,32.59 -0.77,2.45 -1.07,5.7 -6.1,6.36 1.6,-7.9 -1.05,-14.92 -1.08,-22.28 -0.03,-14.23 -1.99,-28.34 -2.98,-42.52 -0.71,-10.41 -1.65,-20.86 -0.84,-31.33 0.16,-2.04 0.43,-4.15 2.98,-4.54 5.08,-0.75 5.42,-4.37 5.03,-8.3 -1.3,-13.07 1.32,-26.12 0.24,-39.18 -0.28,-3.4 -0.47,-6.86 -0.12,-10.24 1.53,-14.48 0.99,-29 0.79,-43.5 -0.26,-20.5 -0.9,-40.98 -1.46,-61.46 -0.3,-10.52 -0.09,-21.05 -0.13,-31.54 -0.06,-17.84 -1.97,-35.69 -1.98,-53.53 -0.01,-17.89 -1.24,-35.73 -0.79,-53.67 0.5,-19.978 2.28,-39.708 5.88,-59.279 1.15,-6.351 2.17,-12.793 3.75,-19.062 1.52,-6.008 4.16,-11.778 2.44,-18.25 -0.62,-2.328 0.08,-4.508 1.71,-6.34 1.94,-2.188 2.47,-5.137 3.86,-7.559 4.13,-7.261 7.04,-15.539 15.53,-19.41 2.41,-1.109 4.07,-3.078 3.31,-6.199 -2.31,-9.52 4.37,-14.82 9.2,-21.961 z m -600.699,1396.6 c -2.574,0 -2.968,0.11 -3.125,-0.03 -15.777,-14.33 -34.254,-25.62 -48.801,-41.18 -9.679,-10.37 -22.113,-18.17 -28.066,-32.49 -4.164,-10.01 -12.949,-17.82 -20.762,-25.74 -6.367,-6.45 -13.898,-11.88 -19.531,-18.79 -5.973,-7.34 -13.008,-13.59 -19.894,-19.61 -10.184,-8.91 -20.563,-17.79 -30.266,-27.1 -13.914,-13.36 -28.168,-26.41 -41.82,-40.06 -16.286,-16.28 -33.282,-31.88 -48.883,-48.78 -9.457,-10.24 -21.703,-18.47 -26.578,-32.57 -0.336,-0.96 -1.551,-1.6 -2.348,-2.41 -12.051,-12.31 -24.734,-24.03 -37.168,-35.94 -10.215,-9.78 -19.902,-20.07 -30.133,-29.82 -12.527,-11.95 -25.551,-23.34 -38.051,-35.29 -4.761,-4.56 -9.496,-8.33 -16.546,-4.33 -2.477,1.4 -4.911,0.37 -6.993,-1.57 -5.41,-5.03 -11.343,-9.59 -16.281,-15.04 -11.64,-12.87 -23.73,-25.27 -36.066,-37.44 -1.34,-1.3 -3.336,-2.41 -1.621,-5.77 9.929,4.4 21.222,4.21 31.082,9.48 1.929,1.03 4.375,1.31 6.609,1.47 4.891,0.38 9.262,2.53 13.899,3.62 9.816,2.3 19.05,9.86 29.945,3.62 0.547,-0.31 1.605,0.25 2.422,0.44 5,1.11 10.019,2.06 14.961,3.54 7.808,2.33 15.793,4.06 23.707,6.05 11.394,2.85 23.797,1.62 34.035,9.39 4.191,3.18 9.558,4.99 14.594,6.87 11.707,4.37 23.617,8.15 34.902,13.64 5.586,2.72 11.176,5.82 17.129,7.29 8.75,2.16 15.84,7.77 24.281,10.37 0.981,0.31 2.281,1.2 2.5,2.07 1.152,4.39 5.012,5.38 8.363,6.49 15.625,5.18 31.27,10.35 47.063,14.99 10.094,2.96 20.402,5.28 30.73,7.35 12.86,2.59 25.188,6.92 37.743,10.52 2.015,0.59 3.804,0.95 5.703,-0.22 2.117,-1.32 3,-2.58 0.488,-4.43 -1.824,-1.34 -5.125,-0.81 -5.82,-4.97 22.179,6.87 40.254,20.34 60.195,30.23 -18.027,-3.33 -34.863,-11.55 -53.242,-12.3 -1.106,2.14 1.343,4.14 -0.778,6.06 -22.082,-5.9 -43.851,-12.88 -64.625,-22.89 -5.769,-2.79 -11.949,-5.49 -18.703,-5.37 -2.254,0.04 -4.906,0.16 -5.343,3.09 -0.411,2.77 2.187,2.76 3.949,3.5 13.926,5.75 28.336,10.17 42.445,15.38 26.078,9.62 52.969,16.56 79.461,24.81 14.621,4.54 29.426,8.53 44.273,12.31 6.852,1.73 13.504,5.05 20.622,4.85 7.449,-0.22 14.222,2.71 21.359,3.74 10.488,1.55 21.207,4.51 31.23,10.69 -3.531,12.3 -7.695,25.05 -12.371,37.39 -7.476,19.74 -12.683,40.15 -19.906,59.93 -4.754,13.03 -7.703,26.6 -9.902,40.31 -3.067,19.1 -5.301,38.24 -4.672,57.68 0.137,4.28 1.797,8.62 0.887,12.64 -2.739,12.06 0.214,23.91 1.75,35.5 1.285,9.65 0.765,18.52 -1.321,27.67 -0.437,1.94 -0.594,4.23 -3.012,4.62 -2.792,0.46 -5.32,-0.62 -5.98,-3.51 -0.488,-2.12 -1.477,-3.52 -2.937,-4.95 -13.86,-13.75 -27.86,-27.4 -40.602,-42.2 -12.746,-14.8 -25.606,-29.6 -31.813,-48.72 -0.418,-1.29 -1.257,-2.59 -2.25,-3.52 -1.359,-1.29 -2.757,-3.48 -4.992,-2.31 -2.406,1.26 -2.66,3.81 -1.422,5.96 4.204,7.3 6.149,15.74 11.711,22.38 4.528,5.41 8.45,11.31 12.887,16.8 7.266,8.98 14.164,18.3 22.492,26.4 9.676,9.39 17.672,20.36 29.207,30.21 z m 282.329,-424.43 0.02,0.01 c -2.52,2.44 -5.165,-0.66 -7.985,0.36 -9.512,3.44 -19.5,5.72 -28.75,9.72 -17.188,7.44 -34.356,14.85 -50.825,24.04 -21.683,12.12 -41.8,26.2 -60.277,42.58 -4.492,3.99 -8.531,4.77 -13.785,4.24 -3.559,-0.36 -3.836,-2.48 -2.113,-4.52 2.484,-2.97 4.781,-6.27 9.05,-7.41 2.696,-0.74 3.809,-3.07 0.731,-4.8 -2.918,-1.63 -2.641,-3.16 -0.969,-5.35 8.043,-10.56 15.371,-21.77 25.098,-30.9 5.515,-5.19 10.722,-11.01 18.461,-13.48 4.144,-1.33 6.281,-5.26 8.625,-8.76 -2.004,-1.43 -3.598,-0.99 -5.137,-0.09 -3.418,1.98 -6.832,3.97 -10.223,5.99 -0.949,0.59 -1.863,1.58 -2.926,0.5 -1.011,-1.02 -0.515,-2.08 0.497,-2.85 4.492,-3.47 9.027,-6.8 10.605,-12.77 0.27,-1.07 2.051,-1.87 3.285,-2.5 6.196,-3.16 11.141,-7.62 15.453,-13.11 4.668,-5.94 8.192,-7.49 14.875,-8.03 -2.468,1.94 -4.41,3.54 -6.429,5.03 -2.5,1.85 -4.473,4.22 -2.582,7.17 1.785,2.76 4.718,2.72 7.507,0.86 2.129,-1.42 4.243,-2.9 6.489,-4.1 7.925,-4.22 14.683,-10.46 23.414,-13.34 2.105,-0.7 3.949,-2.21 5.949,-3.28 4.5,-2.41 9.258,-4.43 13.469,-7.27 4.234,-2.87 7.301,-7.7 13.351,-7.08 14.352,-9.03 31.192,-12.22 46.222,-19.78 9.06,-4.55 19.1,-7.57 29.03,-9.84 19.65,-4.52 39.4,-8.93 59.8,-8.33 1.41,0.03 3.14,0.39 3.64,-1.29 0.64,-2.19 -1.38,-2.9 -2.84,-3.6 -2.05,-0.97 -4.26,-1.6 -6.36,-2.49 -4.41,-1.89 -9.21,-1.81 -13.94,-2.23 2.64,-0.98 5.52,-0.65 7.63,-1.78 7.41,-3.96 14.32,-1.01 21.47,0.63 4.69,1.08 5.99,3.68 5.09,8.04 -3.41,16.42 -7.23,32.76 -9.57,49.38 -1.93,13.78 -5.75,27.26 -6.83,41.17 -1.22,15.84 -4.79,31.32 -6.58,47.12 -1.27,11.33 -3.57,22.84 -6.29,34.1 -0.75,3.09 -1.69,6.95 0.62,9.03 4.73,4.24 2.95,8.65 1.87,13.34 -0.64,2.78 -1.35,5.6 -1.44,8.41 -0.46,13.92 -4.69,27.22 -6.48,40.92 -1.69,12.94 -5.4,25.63 -3.99,38.88 0.15,1.4 -0.04,2.95 0.49,4.17 0.8,1.77 1.97,3.78 4.39,3.25 2.22,-0.48 1.59,-2.64 1.84,-4.24 1.23,-8.14 2.07,-16.39 9.25,-22.13 1.77,-1.41 2.33,-3.85 2.67,-6.16 2.04,-13.97 6.67,-27.34 8.17,-41.56 1.53,-14.62 3.65,-29.31 6.29,-43.85 1.12,-6.15 2.29,-12.42 2.23,-18.62 -0.18,-19.8 4.74,-38.85 7.65,-58.19 1.23,-8.2 3.55,-16.11 5.31,-24.16 2.18,-10 3.14,-20.26 5.96,-30.12 1.33,-4.65 3.25,-9.05 1.31,-14.09 -0.83,-2.15 0.27,-4.51 1.78,-6.35 1.13,-1.37 1.89,-2.86 1.78,-4.66 -0.47,-8.01 1.43,-15.81 2.2,-23.71 0.83,-8.65 0.9,-17.6 5.33,-25.32 9.16,-15.97 14.41,-33.42 19.27,-50.87 5.41,-19.42 9.14,-39.31 13.6,-59 1.13,-5 2.2,-10 3.3,-15 4.86,-22.11 4.13,-44.73 6.27,-67.1 0.39,-3.99 0.01,-7.91 -0.83,-11.89 -1.2,-5.71 -0.47,-11.34 2.37,-16.56 0.95,-1.75 2.24,-3.35 2.35,-5.44 0.93,-17.3 10.12,-32.24 13.93,-48.7 2.43,-10.51 8.03,-19.95 9.42,-30.86 0.63,-5.03 3.64,-9.7 7.17,-15.12 4.15,8.49 7.84,15.79 11.27,23.2 4.82,10.36 6.7,21.65 10.08,32.48 2.15,6.89 2.02,13 -1.52,19.58 -3.47,6.48 -5.65,13.67 -8.23,20.61 -1.87,5.05 -0.83,6.75 4.44,7.34 2.84,0.32 5.41,0.4 7.8,2.66 4.27,4.05 4.49,3.86 7.93,-0.87 0.85,-1.16 1.63,-2.35 3.15,-2.46 2.91,0.45 2.47,5.41 6.7,4.59 2.15,-7.73 -6.59,-15.52 -0.46,-23.25 3.05,0.74 3.4,3.2 4.3,5.23 1.03,2.35 1.89,4.77 3.03,7.07 1.02,2.07 2.8,2.79 4.98,1.75 1.71,-0.81 2.57,-2.19 2.18,-4.15 -0.05,-0.28 -0.12,-0.55 -0.22,-0.82 -2.64,-8.06 -5.12,-16.17 -8.02,-24.13 -1.11,-3.05 -1.94,-5.75 -0.97,-9.03 3.42,-11.41 6.79,-22.9 10.79,-34.06 4.85,-13.59 8.71,-27.48 13.86,-40.94 0.46,-1.26 0.52,-2.9 3.25,-3.01 5.24,6.55 8.68,14.61 12.93,22.2 4.92,8.82 5.82,19.03 10.38,27.96 9.7,18.99 12.77,39.77 15.78,60.52 0.48,3.35 0.85,6.37 5.29,6.1 0.88,-0.05 2.07,0.75 1.39,1.29 -5,3.97 2.47,8.12 -0.35,12.43 -1.07,1.62 0.97,4.38 3.57,4.9 2.58,0.5 4.41,-0.62 5.21,-3.22 1.18,-3.81 3.23,-7.24 4.01,-11.24 1.1,-5.55 3.26,-10.74 7.92,-14.41 0.96,-0.76 1.9,-1.58 1.51,-2.75 -1.87,-5.61 1.81,-10.6 1.6,-15.93 -0.17,-4.06 0.93,-7.27 3.92,-9.89 3.22,-2.81 4.51,-6.22 4.51,-10.57 0,-3.93 0.88,-7.85 2.65,-11.57 4.62,-9.72 9,-19.56 13.48,-29.35 1.9,-4.16 3.51,-8.38 4.07,-13 0.26,-2.25 1.17,-5.01 3.87,-4.78 2.93,0.24 2.92,3.22 2.56,5.4 -0.52,3.13 -0.59,6.23 -0.32,9.36 1.81,20.72 7.55,40.74 11.35,61.09 3.28,17.57 7.19,35.06 11.07,52.53 3.5,15.74 4.95,31.92 7.43,47.9 2.61,16.86 4.95,33.8 7.13,50.68 2.1,16.25 4.68,32.57 5.3,49.04 0.14,3.44 -0.82,8.63 5.77,8.04 1.21,-0.1 1.87,1.25 2.01,2.4 0.82,7.28 2.61,14.65 2.14,21.85 -0.86,12.61 0.18,25.01 2.05,37.33 1.48,9.78 2.5,19.66 3.61,29.41 2.77,24.02 7.03,47.82 9.53,71.88 1.63,15.83 4.85,31.47 4.09,47.5 -1.19,25.05 0.83,49.81 5.73,74.43 2.31,11.65 4.98,23.31 4.51,35.43 -0.16,4.08 -0.08,8.63 2.12,12.51 0.92,1.61 0.78,4.47 3.52,4.14 2.38,-0.28 3,-2.63 2.9,-4.58 -0.65,-12.48 1.54,-24.92 -0.22,-37.45 -2.02,-14.3 -3.16,-28.67 -1.03,-43.17 2.05,-13.93 0.16,-27.9 -2.93,-41.32 -2.72,-11.78 -4.04,-23.59 -4.46,-35.44 -1.1,-31.56 -0.84,-63.17 -5.32,-94.53 -0.26,-1.79 -1.49,-4.47 1.43,-4.88 2.27,-0.31 3.26,1.83 3.37,4.06 0.06,1.14 0.08,2.28 0.19,3.42 0.29,2.72 0,6.89 3.71,6.23 3.62,-0.67 0.73,-4.19 0.66,-6.47 -0.11,-3.59 1.56,-4.94 4.65,-3.13 7.19,4.19 15.26,5.99 22.87,9.02 22.43,8.92 45.96,14.77 68.04,24.65 1.79,0.81 4,1.5 6.28,0.67 -1.98,-4.2 -4.49,-6.52 -8.6,-8.13 -14.24,-5.59 -28.21,-11.82 -42.71,-16.91 -16.52,-5.8 -32.69,-12.82 -48.06,-21.41 -1.63,-0.91 -3.75,-1.72 -3.16,-4.57 0.73,-0.23 1.55,-0.82 2.24,-0.67 6.96,1.43 14.01,2.61 20.83,4.57 15.59,4.47 31.07,9.26 46.55,14.09 11.47,3.58 23.05,6.8 31.41,16.63 7.68,9.02 16.62,16.85 25.26,24.98 9.04,8.51 16.41,18.79 27.14,25.59 7.44,4.74 13.39,11.41 20.45,16.55 14.84,10.81 30.18,20.98 45.49,31.13 13.48,8.91 26.66,18.18 39.33,28.26 11.32,9 22.55,17.99 32.12,28.93 2.97,3.37 6.51,6.29 10.07,9.06 2.66,2.05 3.3,-0.38 3.82,-2.43 -4.77,-1.22 -7.17,-5.72 -9.86,-8.83 -9.42,-10.87 -19.67,-20.9 -30.16,-30.58 -12.27,-11.33 -25.48,-21.69 -38.69,-31.96 -16.29,-12.65 -33.09,-24.66 -47.6,-39.45 -2.62,-2.68 -5.06,-5.39 -9.57,-2.98 -2.2,1.18 -4.09,-1.07 -5.98,-2.36 -4.97,-3.39 -8.72,-8.09 -13.26,-11.95 -12.33,-10.48 -24.72,-20.91 -37.09,-31.34 -2.45,-2.09 -5.26,-3.89 -6.3,-7.93 11.74,1.2 20.66,10.49 32.79,7.73 -15.22,-5.23 -28.41,-14.54 -43.7,-19.7 -15.01,-5.07 -30.3,-9.61 -44.54,-16.76 7.77,-1.89 15.32,-3.29 21.53,3.25 1.61,1.71 3.69,0.88 5.65,0.79 7.05,-0.31 13.41,1.4 19.07,5.95 10.75,8.6 23.81,13.14 35.79,19.57 10.92,5.85 22.44,10.43 32.26,18.39 4.65,3.78 8.68,8.13 13.21,12.01 11.8,10.14 25.03,18.45 36.47,29.05 10.84,10.04 23.46,17.89 34.31,27.99 6.88,6.42 12.57,14.09 19.95,19.82 11.82,9.15 19.75,21.14 25.97,34.25 3.85,8.08 8.08,16.21 9.5,25.28 7.17,9.27 12.43,18.85 7.41,31.18 -1.34,3.31 -1.38,7.28 -1.41,10.96 -0.03,4.4 2.16,7.38 7.11,8.1 1.34,-5.06 0.67,-10.43 5.21,-15.14 3.59,8.26 8.17,15.45 9.85,23.28 3.6,16.77 10.13,32.53 15.48,48.67 4.35,13.15 9.33,26.17 14.62,39.06 6.04,14.7 9.91,30.3 14.87,45.46 2.68,8.19 3.49,16.66 3.86,25.15 0.14,3.16 1.31,6.68 -1.36,10.48 -1.35,-2.13 -2.78,-3.58 -3.32,-5.33 -6.43,-20.43 -18.53,-38.14 -27.69,-57.25 -6.73,-14.03 -15.44,-27.11 -23.46,-40.5 -15.58,-26.08 -31.66,-51.85 -48.92,-76.86 -9.04,-13.1 -18.27,-26.06 -28.09,-38.58 -2.09,-2.66 -3.45,-5.2 0.02,-8.05 2.58,-2.12 1.29,-4.4 -0.25,-6.76 -3.29,-5.03 -7.62,-9.18 -11.31,-13.84 -10.65,-13.44 -22.59,-25.64 -35.6,-36.65 -19.35,-16.35 -36.36,-35.43 -57.88,-49.2 -7.87,-10.04 -19.56,-16.07 -27.57,-25.99 -0.65,-0.81 -1.84,-1.35 -2.89,-1.66 -1.6,-0.49 -3.64,-1.16 -4.63,0.67 -0.93,1.75 0.37,3.22 1.93,4.2 6.25,3.95 11.34,9.15 16.48,14.44 5.31,5.47 10.13,11.73 16.13,16.17 9.89,7.3 18.61,15.65 27.33,24.21 13.17,12.96 27.01,25.25 40.37,38.04 3.01,2.88 6.98,5.48 7.86,9.84 1.17,5.96 4.69,10.21 8.73,14.22 4.29,4.27 6.97,9.7 10.72,14.36 2.14,2.67 1.24,6.63 3.96,9.27 8.43,8.17 14.44,18.32 20.93,27.89 7.12,10.49 14.97,20.58 20.65,32.12 5.38,10.93 14.06,19.96 19.21,31.15 1.9,4.12 3.9,8.22 6.8,11.81 4.08,5.05 5.68,10.99 6.29,17.37 0.67,7.01 1.16,14.14 2.8,20.95 0.8,3.33 1.89,6.57 1.64,9.94 -0.4,5.5 0.83,10.7 1.7,16.05 3.44,20.99 6.63,42.03 9.65,63.09 1.24,8.67 1.77,17.44 2.73,26.15 3.28,29.63 6.84,59.24 4.98,89.17 -0.25,4.06 2.85,9.03 5.42,8.49 3.68,-0.79 4.11,-4.13 4.62,-7.28 1.48,-8.95 0.06,-17.93 -0.8,-26.72 -1.52,-15.25 -1.9,-30.68 -5.15,-45.75 -0.33,-1.51 0.05,-3 1.65,-3.48 1.5,-0.46 2.74,0.51 3.57,1.72 0.65,0.93 1,2.05 1.57,3.03 6.33,10.87 8.79,23.17 9.72,35.2 0.84,10.75 2.32,21.51 2.56,32.43 0.28,13.93 -0.55,27.85 -0.31,41.77 0.24,12.94 -2.87,25.94 -4.46,38.92 -3.75,30.55 -10,60.64 -16.23,90.74 -0.37,1.76 -0.58,3.9 -2.46,3.96 -2.68,0.11 -2.71,-2.46 -2.85,-4.4 -0.35,-5.26 -2.92,-9.8 -4.83,-14.5 -1.28,-3.19 -6.18,-4.97 -7.75,-3.4 -2.43,2.44 -0.23,4.73 0.73,6.96 0.44,1.04 1.22,1.93 1.87,2.86 3.62,5.15 4.59,11.16 4.36,17.12 -0.64,16.44 -1.8,32.8 -9.69,47.86 -2.08,3.99 -2.75,8.61 -7.23,11.09 -1.76,0.97 -2.6,3.01 -2.52,5.16 0.39,11.23 -6.59,19.67 -11.23,28.93 -6.34,12.7 -14.81,24.16 -21.95,36.39 -2.58,4.41 -4.31,9.42 -7.38,13.45 -8.59,11.31 -16.29,23.26 -24.71,34.69 -8.47,11.51 -18.89,20.35 -30,28.63 -8.44,6.3 -17.82,11.15 -27.99,14.28 -2.74,0.84 -5.89,1.89 -4.93,5.67 0.91,3.62 3.72,4.76 7.33,3.95 1.93,-0.46 3.87,-0.95 5.82,-1.29 1.36,-0.23 3,-0.64 3.56,1.22 0.35,1.22 -0.68,1.97 -1.51,2.77 -6.49,6.29 -14.41,11.14 -19.31,19.05 -0.25,0.41 -0.93,0.78 -1.44,0.82 -7.13,0.55 -11.13,6.46 -16.52,9.88 -13.93,8.79 -26.97,18.92 -41.89,26.22 -9.24,4.51 -19.33,6.99 -28.2,12.08 -8.15,4.69 -16.68,6.83 -25.98,6.77 -11.71,-0.05 -22.66,-1.41 -28.17,-13.96 -0.44,-1.01 -1.4,-1.91 -2.74,-1.5 -1.25,0.37 -1.4,1.55 -1.67,2.67 -2.12,8.54 3.37,13.26 9.04,17.78 4.58,3.68 5.29,5.93 2,10.44 -1.99,2.74 -4.84,4.86 -6.84,7.61 -10.79,14.84 -27.37,21.6 -42.36,30.58 -10.92,0.3 -20.83,5.31 -31.52,6.74 -20.72,2.78 -41.46,0.95 -62.19,0.41 -13.1,-0.34 -26.07,-2.34 -38.97,-4.51 -11.8,-2 -23.62,-4.52 -33.94,-11.01 -8.47,-5.33 -15.5,-11.9 -13.34,-23.51 0.21,-1.08 0,-2.34 -1.55,-2.56 -7.04,5.83 -9.18,12.07 -5.92,18.34 2.24,4.34 5.41,8.01 9.3,11.02 1.48,1.16 3.69,1.71 3.49,4.63 -3.35,1.3 -5.59,-1.98 -8.62,-2.26 -19.16,-1.79 -38.26,-3.64 -57.27,-7.04 -13.45,-2.42 -27.17,-3.05 -39.82,-8.93 -2.37,-1.11 -5.36,-1.55 -6.8,1.24 -1.48,2.83 -0.49,5.71 2.39,7.34 3.69,2.09 7.33,4.14 11.73,4.83 7.91,1.22 15.75,3.01 23.61,4.56 -0.13,0.66 -0.27,1.32 -0.4,2 -18.62,-1.03 -37.52,-0.35 -54.6,-10.43 -0.93,-0.55 -2.16,-0.86 -3.24,-0.85 -4.71,0.05 -8.79,-2.16 -13.14,-3.4 -6.35,-1.81 -11.79,-6.41 -17.65,-7.78 -16.29,-3.83 -29.09,-13.87 -43.12,-21.63 -9.16,-5.08 -17.27,-12.04 -26.13,-17.72 -17.31,-11.09 -33.17,-24.03 -48.18,-37.96 -6.45,-6.01 -13.78,-11.69 -15.58,-21.55 -0.79,-4.32 -0.91,-8.43 -0.66,-12.68 0.19,-2.96 -1.26,-4.83 -4.01,-3.39 -5.11,2.68 -10.86,3.15 -16.11,5.48 -4.44,1.97 -10.433,5.15 -14.44,1.66 -4.864,-4.26 -12.422,-6.3 -13.879,-14.03 -0.149,-0.79 -0.7,-1.75 -1.36,-2.13 -5.769,-3.46 -6.57,-9.9 -8.687,-15.25 -3.192,-8.07 -0.047,-13.79 7.906,-16.66 1.051,-0.38 2.457,-0.32 2.434,-1.84 -0.028,-1.66 -1.321,-2.34 -2.75,-2.71 -8.2,-2.11 -17.371,4.96 -16.653,13.55 0.414,4.95 0.887,10.1 3.379,14.78 2.942,5.5 4.977,11.49 9.063,16.67 -10.383,-4.84 -19.985,-10.73 -27.25,-19.41 -5.446,-6.51 -8.243,-15.07 -14.16,-21.22 -5.973,-6.23 -6.567,-15.49 -12.954,-21.31 -0.054,-0.05 0.532,-0.78 1.215,-1.78 3.559,5.14 9.125,7.39 14.086,10.48 2.274,1.42 5.328,2.03 6.965,-0.5 1.891,-2.9 0.125,-5.62 -2.699,-6.95 -6.871,-3.28 -11.86,-8.79 -17.238,-13.86 -1.028,-0.97 -2.129,-1.94 -3.372,-2.56 -5.941,-2.97 -9.148,-8.14 -12.339,-13.7 -6.122,-10.65 -9.829,-22.32 -14.84,-33.43 -8.672,-19.17 -14.446,-39.42 -20.567,-59.49 -5.402,-17.68 -11.793,-35.04 -16.539,-52.94 -4.011,-15.13 -9.086,-29.98 -12.769,-45.19 -5.067,-20.93 -9.262,-42.07 -13.84,-63.11 -1.734,-7.97 -0.289,-9.75 7.781,-9.53 1.996,0.05 3.992,0.27 5.973,0.16 1.765,-0.1 3.347,-0.73 3.59,-3.21 -1.914,-2.02 -4.68,-1.34 -7.075,-1.61 -7.664,-0.89 -12.539,-5.05 -14.515,-12.37 -1.774,-6.57 -3.934,-13.18 -4.539,-19.91 -1.055,-11.61 -3.856,-22.94 -5.696,-34.38 -1.804,-11.24 -3.418,-22.52 -4.238,-33.78 -1.144,-15.97 -2.933,-31.94 -2.41,-48.06 0.316,-9.44 0.547,-18.93 3.445,-27.83 6.598,-20.25 14.34,-40.05 28.121,-56.81 1.93,-2.34 2.996,-5.15 3.364,-10.33 -14.731,12.8 -19.907,29.95 -29.77,43.77 -1.765,-1.43 -1.449,-2.55 -1.387,-3.67 0.567,-10.88 2.817,-21.8 7.379,-31.29 4.5,-9.39 8.907,-21.12 22.914,-21.25 1.211,-0.02 2.106,-0.71 2.379,-2.02 0.321,-1.55 -0.074,-2.83 -1.504,-3.6 -2.125,-1.15 -4.339,-0.91 -6.652,-0.54 -7.285,1.16 -12.078,5.44 -15.766,11.58 -8.64,14.36 -13.648,30.04 -15.312,46.49 -2.32,22.92 -4.535,45.83 -8.141,68.58 -0.758,4.8 -1.16,9.78 -4.636,14.95 -2.039,-9.96 -4.872,-18.4 -4.84,-27.72 0.023,-9.78 -3.871,-19.27 -2.789,-29.39 1.035,-9.55 -1.645,-19.29 1.09,-28.87 0.515,-1.83 0.171,-3.99 -0.118,-5.95 -0.582,-3.98 -0.269,-7.86 0.118,-11.87 0.921,-9.63 2.816,-19.13 3.726,-28.73 1.629,-17.08 5.941,-33.59 9.879,-50.19 0.727,-3.08 1.719,-5.44 5.598,-4.81 1.711,0.28 3.57,0.1 4.172,-2 0.457,-1.6 -0.563,-2.74 -1.813,-3.5 -4.977,-3.03 -4.43,-7.34 -3.043,-12.01 2.547,-8.7 7.277,-16.61 9.148,-25.55 0.372,-1.74 1.583,-2.97 2.641,-4.32 3.813,-4.87 8.113,-9.29 11.867,-14.27 6.367,-8.44 15.61,-14.49 21.063,-23.9 0.629,-1.09 2.219,-1.82 3.523,-2.29 2.793,-0.99 4.942,-2.82 6.906,-4.89 7.637,-8.07 16.407,-14.76 25.254,-21.4 13.61,-10.22 27.176,-20.45 42.524,-28.05 4.781,-2.37 9.898,-4.45 14.215,-7.34 12.879,-8.62 27.054,-14.49 40.968,-20.95 3.059,-1.42 7.082,-2.3 8.766,-4.74 2.492,-3.6 4.977,-3.77 8.625,-3.27 3.413,0.48 6.363,-0.46 5.903,-4.98 z m -185.903,698.62 c 0.719,2.93 4.266,4.91 2.84,8.64 -2.531,-2.53 -4.922,-5 -2.606,-8.86 -6.367,0.27 -7.648,-5.28 -9.793,-9.23 -5.132,-9.46 -9.71,-19.22 -14.457,-28.89 -5.117,-10.43 -11.3,-20.5 -14.984,-31.42 -6.699,-19.87 -12.922,-39.99 -16.273,-60.78 -0.946,-5.83 -0.68,-11.86 -0.844,-17.8 -0.016,-0.68 0.648,-1.81 1.211,-1.98 1.144,-0.34 2.293,0.42 2.844,1.38 1.136,1.97 0.656,4.31 1.476,6.52 4.867,12.99 10.418,25.66 16.934,37.92 2.246,4.22 4.574,9.05 4.062,13.49 -0.926,8.08 1.426,15.71 1.535,23.61 0.067,5.22 1.004,10.66 2.739,15.6 6.375,18.23 16.156,34.85 25.316,51.8 z M 279.859,1788.77 c 3.239,-0.88 6.25,-0.89 9.426,2.24 -4.183,1 -6.531,-1.45 -9.301,-2.34 -4.105,0.63 -8.429,-0.62 -12.367,1.76 -1.504,0.91 -3.336,-0.13 -4.972,-0.54 -8.801,-2.22 -17.403,-5.16 -26.258,-7.28 -3.836,-0.92 -7.348,-2.95 -10.805,-5.86 -7.324,-6.15 -13.527,-15.24 -25.129,-14.21 -0.98,0.09 -2.273,-0.6 -3.043,-1.33 -4.926,-4.74 -11.465,-7.45 -15.879,-12.81 -2.461,-2.98 -5.363,-5.7 -6.34,-11.19 6.762,3.18 12.45,5.95 18.231,8.54 12.867,5.77 24.937,13.15 38.363,17.88 7.883,2.78 14.637,8.55 23.254,9.9 0.496,0.08 1.012,0.55 1.371,0.96 3.496,4.15 8.488,5.4 13.278,7.18 3.917,1.46 8.234,2.68 10.171,7.1 z m 490.411,270 c -2.399,16.85 -5.715,33.53 -7.629,50.48 -2.524,22.32 -2.5,44.6 -1.934,66.95 0.176,6.8 0.328,13.62 0.758,20.41 0.23,3.61 -1.985,6.39 -2.777,9.64 -0.172,0.67 -2.579,2.18 -4.407,1.42 -1.332,-1.21 -0.847,-2.69 -0.89,-4.05 -0.278,-13.03 -0.895,-26.06 -0.7,-39.08 0.196,-12.22 0.957,-24.45 2.032,-36.63 0.785,-9.02 2.175,-18 3.808,-26.95 2.196,-12.03 3.887,-24.12 8.051,-35.7 0.863,-2.4 1.273,-5 3.856,-6.32 -0.754,-3.35 -0.356,-6.47 1.593,-9.36 2.016,0.83 3.223,1.97 2.145,3.84 -1.09,1.91 -2.59,3.58 -3.906,5.35 z m -200.5,57.78 c 2.144,1.29 4.168,2.68 5.773,5.53 -4.059,-0.71 -5.645,-2.51 -5.566,-5.72 -4.497,0.23 -7.266,-2.98 -10.207,-5.49 -5.418,-4.62 -10.555,-9.57 -15.778,-14.42 -15.015,-13.93 -29.82,-28.12 -45.137,-41.72 -5.769,-5.14 -10.562,-10.84 -15.132,-16.99 4.707,1.52 8.304,5.03 12.949,6.17 4.414,1.09 7.406,3.85 10.445,6.94 17.946,18.18 36.067,36.2 53.957,54.43 3.297,3.37 7.364,6.32 8.696,11.27 z m 673.12,-795.1 c -2.2,6.65 0.56,12.87 -0.09,18.93 -2.8,0.88 -3.22,-1.07 -3.68,-2.6 -0.89,-3.05 -2.12,-5.87 -4.37,-8.21 -0.76,-0.8 -1.33,-1.89 -1.66,-2.95 -1.48,-4.74 -3.78,-7.49 -7.8,-10.3 -1.92,-1.33 -3.49,-1.61 -5.46,-0.55 -2.07,1.13 -2.26,3.12 -2.33,5.15 -0.09,2.54 1.32,4.42 3.23,5.72 4.87,3.32 5.23,7.81 3.7,12.84 -5.14,16.9 -8.07,34.3 -12.11,51.46 -0.65,2.81 -1.04,5.91 -3.26,7.73 -5.2,4.22 -5.36,10.42 -6.97,16.06 -0.69,2.45 -1.07,5.02 -1.26,7.56 -1.11,14.6 -7.55,27.94 -9.97,42.24 -2.36,14.01 -4.66,28.03 -7.13,42.02 -1.87,10.63 -3.66,21.3 -6.1,31.8 -1.42,6.1 -1.6,12.71 -3.66,18.25 -3.22,8.71 -4.28,17.66 -6.24,26.51 -1.04,4.71 -1.72,9.52 -2.57,14.27 -1.69,9.44 -3.38,18.89 -5.11,28.32 -0.2,1.06 -0.28,2.3 -2.14,2.89 0,-4.16 0.07,-8.19 -0.02,-12.22 -0.04,-1.61 0.12,-3.84 -2.17,-3.88 -1.96,-0.04 -2.64,1.91 -3.1,3.58 -0.29,1.1 -0.54,2.27 -0.46,3.38 0.82,12.3 -1.32,24.42 -1.97,36.64 -1.01,18.8 -3.22,37.41 -7.28,55.81 -1.88,8.55 -2.02,8.77 -10.73,6.42 -7.42,-2.01 -14.77,-4.28 -22.23,-6.08 -3.86,-0.92 -7.89,-1.39 -11.85,-1.44 -3.5,-0.03 -7.86,1.14 -8.07,4.86 -0.27,4.77 -2.66,4.64 -5.96,4.97 -15.64,1.6 -30.69,5.83 -45.84,9.85 -9.59,2.53 -19.46,4.25 -28.79,7.62 -21.417,7.73 -42.397,16.28 -62.194,27.94 -14.687,8.66 -29.859,16.57 -43.984,26.15 -11.715,7.94 -22.946,16.47 -33.414,26.19 -5.246,4.86 -10.993,9.66 -16.215,14.61 -6.692,6.33 -13.633,12.74 -18.629,20.76 -4.785,7.68 -12.262,13.43 -15.527,22.25 -2,5.39 -3.934,10.71 -3.903,16.53 0.039,3.98 0.117,7.91 4.09,10.51 3.231,2.13 2.199,4.63 0.246,7.23 -7.805,10.45 -13.82,21.94 -20.062,33.36 -2.86,5.22 -4.789,10.85 -7.918,15.91 -2.2,3.51 -3.95,5.2 -8.828,3.11 -6.055,-2.57 -10.993,-6.77 -16.926,-9.49 -19.629,-9.01 -39.352,-17.74 -59.66,-25.14 -19.567,-7.13 -38.004,-16.59 -54.754,-29.14 -3.864,-2.9 -8.024,-5.41 -12.012,-8.16 -4.113,-2.82 -8.172,-5.03 -13.41,-2.47 -3.41,1.67 -6.711,0.06 -9.762,-1.58 -23.043,-12.34 -46.828,-23.25 -69.777,-35.78 -7.446,-4.06 -15.547,-7.04 -23.543,-9.95 -11.246,-4.1 -21.797,-9.73 -32.86,-14.21 -20.902,-8.45 -39.382,-21.41 -59.375,-31.54 -4.32,-2.19 -8.562,-4.56 -13.015,-6.44 -5.164,-2.18 -7.153,-1.54 -11.02,3.34 -1.656,2.1 -3.379,1.77 -5.269,1.06 -14.364,-5.43 -29.039,-10.18 -42.973,-16.54 -18.348,-8.36 -36.207,-17.81 -54.082,-27.15 -15.66,-8.17 -31.578,-15.99 -48.148,-21.78 -10.953,-3.82 -21.645,-8.52 -32.7,-11.73 -13.101,-3.81 -23.921,-11.03 -34.949,-18.32 -3.789,-2.51 -7.504,-5.29 -12.258,-5.71 -2.062,-0.18 -4.183,0 -4.785,2.49 -0.613,2.53 0.367,4.14 2.957,5.28 15.668,6.9 29.949,16.16 43.735,26.2 2.183,1.6 4.632,2.17 6.996,3.04 3.218,1.19 5.879,2.81 8.109,6.92 -10.562,-3.85 -19.68,-7.99 -27.332,-14.91 -0.422,-0.39 -0.758,-0.93 -1.25,-1.14 -14.625,-6.1 -26.742,-16.85 -41.68,-22.39 -2.773,-1.03 -5.406,-1.73 -8.246,-0.43 -3.402,1.56 -3.996,4.29 -1.082,6.55 3.633,2.81 7.949,4.37 12.203,6.06 5.368,2.15 11.469,3.1 15.309,8.05 -0.914,2.15 -2.457,1.86 -3.652,1.28 -7.078,-3.52 -14.637,-5.51 -22.348,-6.89 -4.977,-0.9 -8.859,-2.92 -11.719,-7.23 -1.715,-2.57 -3.847,-4.94 -6.695,-6.49 -2.039,-1.12 -4.066,-2.16 -6.465,-1.72 -1.687,0.3 -3.398,0.7 -4.082,2.6 -0.687,1.93 0.293,3.3 1.664,4.45 7.414,6.23 13.664,13.65 20.723,20.24 9.367,8.73 17.344,18.74 26.429,27.72 1.938,1.91 3.465,4.22 2.844,6.81 -0.984,4.14 1.184,6.42 3.867,8.72 2.801,2.42 5.571,4.87 8.305,7.36 11.91,10.87 23.59,22.01 35.066,33.29 11.516,11.32 22.219,23.55 33.793,34.87 9.516,9.3 19.567,18.09 29.543,26.93 3.442,3.03 7.829,4.61 12,6.47 8.372,3.73 16.047,8.86 22.539,15.02 8.965,8.51 18.954,15.95 27.083,25.36 2.23,2.56 4.718,4.91 7.199,7.24 4.769,4.44 9.492,8.7 12.097,15.1 1.782,4.35 5.536,7.62 9.106,10.99 9.465,8.99 18.496,18.45 27.332,28.08 13.91,15.14 29.219,28.61 46.223,40.18 1.867,1.27 3.765,2.67 5.246,4.36 12.015,13.65 27.07,24.04 39.64,37.22 9.949,10.44 20.496,20.57 31.449,30.03 22.559,19.48 43.825,40.41 67,59.21 6.743,5.48 12.782,12.1 19.348,17.82 9.176,7.97 17.902,16.46 27.32,24.17 4.348,3.56 7.938,8.05 11.848,12.13 8.055,8.41 16.598,16.25 25.449,23.85 6.383,5.48 12.629,11.36 18.664,17.37 12.055,12 25.141,22.85 38.657,33.17 2.539,1.95 3.089,4.83 2.894,7.61 -0.906,12.43 5.028,23.02 9.145,34.03 2,5.38 1.121,11.11 3.39,16.45 5.055,11.89 2.637,24.49 2.946,36.85 0.195,8.18 0.988,16.38 2.297,24.52 4.027,24.89 12.007,48.4 21.605,71.7 7.07,17.19 16.453,33.05 24.598,49.6 4.347,8.8 9.55,17.34 15.461,25.44 4.086,5.59 7.019,12.19 10.66,18.27 4.601,7.67 10.781,13.88 16.343,20.68 1.086,1.32 2.36,2.5 3.317,3.91 3.453,5.04 3.387,6.72 -0.942,11.07 -5.769,5.8 -9.558,12.48 -10.964,20.68 -1.766,10.31 2.894,18.29 8.812,25.72 6.535,8.21 15.285,14 23.516,20.36 4.109,3.19 8.797,5.24 13.144,7.84 13.809,8.23 27.469,16.71 41.938,23.92 10.129,5.04 20.437,9.82 30.383,15.35 14.058,7.81 28.597,14.94 43.418,21.19 19.563,8.27 37.013,19.72 53.663,32.59 14.11,10.89 29.98,18.45 46.45,24.92 9.51,3.75 19.74,5.81 28.91,9.89 8.05,3.58 16.28,7.38 24.13,11.85 15.47,8.79 31.27,17.27 48.72,22.03 9.38,2.57 18.68,4.83 28.43,5.16 8.29,0.28 16.54,0.73 24.47,-2.42 2.84,-1.12 4.89,-0.67 5.77,2.79 1.11,4.4 3.58,8.4 3.79,13.09 0.05,1.12 0.22,2.33 0.69,3.32 6.53,13.59 8.93,28.85 17.31,41.7 4.52,6.92 7.67,14.63 11.29,22.01 6.7,13.75 16.19,25.39 26.11,36.63 6.7,7.58 15.11,13.67 22.75,20.41 0.21,0.19 0.44,0.52 0.65,0.52 10.08,-0.05 17.22,8.22 26.99,9.36 9.66,1.13 19.29,1.74 28.95,0.68 16.67,-1.8 33.17,-2.28 50.07,-0.89 20.34,1.69 39.9,5.93 59.1,12 9.62,3.05 19.23,6.56 28.52,10.95 8.9,4.21 18.69,6.77 27.67,11.1 12.55,6.07 25.05,12.2 37.56,18.33 1.27,0.62 2.56,1.34 3.63,2.25 19.19,16.41 39.17,31.89 53.26,53.59 5.74,8.83 12.01,17.21 16.12,27.01 1.21,2.87 2.22,6.38 6.94,7.63 -2.73,-13.75 -8.24,-25.47 -15.73,-36.11 -7.02,-10 -14.56,-19.66 -22.71,-28.83 -5.17,-5.8 -11.47,-10.21 -17.03,-15.49 -3.89,-3.68 -7.06,-7.98 -11.74,-11.06 -19.64,-12.9 -42.01,-19.88 -63.04,-29.74 -9.8,-4.59 -20.24,-7.43 -29.9,-12.42 -7.75,-4 -16.43,-6.25 -24.8,-8.97 -16.28,-5.32 -33.26,-7.42 -50.08,-9.99 -10.04,-1.51 -20.24,-1.58 -30.57,-0.73 -11.32,0.93 -22.65,2.48 -33.95,2.64 -7.09,0.1 -14.38,-1.25 -21.37,-4.5 -13.93,-6.45 -25.74,-15.92 -36.57,-26.16 -7.88,-7.45 -14.36,-16.9 -19.22,-26.88 -9.43,-19.43 -19.83,-38.42 -26.51,-59.14 -2.11,-6.55 -4.03,-13.2 -4.58,-19.9 -0.48,-5.88 -4.37,-11.13 -2.8,-19.03 3.75,9.18 9.03,15.45 14.25,21.74 3.79,4.58 8.51,8.07 13.13,11.81 6.55,5.32 12.89,10.89 19.89,15.65 8.88,6.03 17.64,12.26 26.72,17.98 10.06,6.34 20.66,11.73 31.69,16.23 5.53,2.25 11.06,2.54 16.61,0.53 2.93,-1.06 5.74,-2.49 8.53,-3.9 13.22,-6.71 26.79,-5.65 40.5,-1.97 6.32,1.71 12.47,3.87 18.64,6.11 16.61,6.05 32.62,13.14 47.38,23.01 14.56,9.73 27.5,21.1 38.02,35.12 0.52,0.7 0.88,1.5 1.44,2.13 1.37,1.6 3.11,2.9 5.2,1.74 2.52,-1.4 2.13,-3.8 1.11,-6 -0.71,-1.54 -1.56,-3.1 -2.67,-4.36 -7.12,-8.14 -14.3,-16.23 -21.55,-24.27 -1.11,-1.23 -2.57,-2.23 -4.02,-3.12 -16.78,-10.19 -33.45,-20.55 -51.31,-28.78 -5.72,-2.65 -11.55,-4.89 -17.79,-5.98 -1.66,-0.29 -3.37,-0.72 -4.87,-1.45 -18.67,-9.06 -37.68,-10.07 -56.84,-1.99 -8.8,3.72 -16.98,3.93 -25.24,-1.24 -2.86,-1.79 -6.18,-2.89 -9.37,-4.14 -11.52,-4.47 -20.54,-12.66 -30,-20.18 -1.79,-1.43 -3.3,-3.38 -5.29,-4.32 -9.29,-4.33 -15.12,-12.76 -22.96,-18.79 -4.14,-3.2 -6.35,-7.79 -9.22,-11.46 0.77,-1.54 1.67,-2.07 2.37,-1.67 16.05,9.04 33.89,13.02 51.27,18.38 12.79,3.94 25.79,7.24 38.85,9.74 23.41,4.47 46.84,9.22 70.81,10.15 22.76,0.87 45.4,0.8 67.98,-3.46 9.82,-1.85 19.89,-3.46 30.21,-2.06 6.38,0.86 13.06,-0.57 19.59,-0.72 7.38,-0.16 14.75,1.59 22.13,0.07 1.09,-0.21 2.35,-0.17 3.4,0.14 13.61,4.04 27.64,7.13 40.68,12.57 12.26,5.12 24.32,11.06 35.62,18.3 5.03,3.21 10.38,5.96 15.77,8.54 14.69,7.07 27.79,16.56 40.8,26.21 2.97,2.2 5.97,4.2 9.87,5.35 1.58,-4.29 -1.37,-6.1 -3.7,-7.83 -11.64,-8.63 -23.04,-17.63 -35.16,-25.55 -18.28,-11.95 -36.21,-24.78 -56.3,-33.51 -15.87,-6.92 -32.55,-11.79 -50.05,-13.59 -21.52,-2.23 -43.03,-2.35 -64.58,-1.11 -3.68,0.21 -7.51,0.4 -10.97,1.51 -18.56,5.98 -37.66,4.98 -56.71,4.96 -4.81,-0.01 -9.68,-0.95 -14.3,1.25 -1.37,0.65 -3.01,0.9 -4.07,-0.05 -4.37,-3.97 -9.55,-3 -14.55,-2.42 -6.31,0.75 -12.22,-0.17 -18.23,-2.3 -6.38,-2.29 -13.09,-3.6 -20,-3.7 -3.1,-0.06 -6.21,-0.93 -9.22,-1.74 -9.02,-2.46 -17.57,-6.92 -27.29,-6.49 -8.02,-6.17 -18.55,-5.26 -27.44,-10.12 -9.58,-5.24 -19.74,-9.82 -29.68,-14.63 -0.99,-0.48 -2.01,-1.08 -2.36,-3.17 13.48,1.63 26.74,3.27 40.02,4.84 20.35,2.4 40.59,5.49 60.82,8.68 12.42,1.96 25.03,1.09 37.54,1.38 9.36,0.23 18.67,1.26 28.12,0.56 18.19,-1.34 36.05,-4.66 54.08,-6.89 10.84,-1.32 21.26,-3.68 31.55,-6.83 12.68,-3.88 25.38,-7.85 37.67,-12.77 14.21,-5.69 28.47,-11.43 41.86,-18.97 15.6,-8.77 30.92,-17.92 44.77,-29.42 5.44,-4.52 11.35,-8.45 16.84,-12.98 14.11,-11.62 26.52,-24.96 39.18,-38.02 12.07,-12.42 23.6,-25.38 35.47,-38.01 4.86,-5.18 8.29,-11.5 13.45,-16.45 2.36,-2.27 2.76,-5.44 2.36,-9.73 -6.47,5.01 -11.59,10.32 -15.82,16.03 -6.71,9.01 -16.25,15.06 -23.16,23.7 -7.84,9.82 -17.47,17.86 -26.34,26.61 -9.05,8.94 -17.2,18.93 -27.87,26.23 -7.5,5.14 -14.06,11.52 -21.53,16.8 -12.53,8.88 -25.9,16.37 -38.97,24.36 -15.1,9.24 -31.72,15.36 -47.74,22.71 -4.46,2.06 -10.42,1.5 -12.9,7.23 -0.19,0.45 -1.57,0.61 -2.35,0.52 -12.06,-1.22 -22.06,5.17 -33,8.25 -5.87,1.66 -12.89,0.9 -19.37,1.5 -0.5,0.04 -1.56,-1.07 -1.58,-1.67 -0.06,-1.19 0.89,-2.19 1.99,-2.52 4.69,-1.39 8.66,-4.17 12.96,-6.27 12.43,-6.1 21.38,-15.68 29.11,-26.74 1.31,-1.86 2.66,-3.7 3.89,-5.62 2.08,-3.23 5.6,-4.77 8.81,-4.21 16.75,2.87 30.97,-4.36 45.62,-10.37 19.03,-7.82 36.94,-17.8 53.51,-29.81 26.74,-19.37 53.52,-38.76 74.79,-64.57 7.2,-8.73 15.64,-16.46 23,-25.09 3.98,-4.7 7.4,-10.07 10.08,-15.61 1.89,-3.92 4.11,-7.38 7.09,-10.38 2.63,-2.67 4.76,-5.6 6.38,-8.99 1.36,-2.81 2.67,-6.1 5,-7.85 3.58,-2.69 7.33,-4.53 4.83,-9.96 -0.26,-0.57 0.23,-1.78 0.74,-2.33 6.29,-6.61 9.1,-15.33 13.75,-22.91 4.6,-7.5 8.62,-15.35 12.94,-23.01 1.4,-2.49 2.83,-4.98 5.23,-6.68 1.43,-0.99 2.87,-2.14 3.09,-3.92 0.79,-6.48 5.25,-10.59 9.46,-14.79 7.03,-6.98 11.2,-15.9 14.9,-24.61 4.11,-9.63 8.74,-19.06 12.72,-28.76 4.56,-11.11 5.83,-23.09 9.88,-34.28 4.47,-12.38 4.97,-25.59 8.23,-38.24 1.77,-6.82 1.75,-14.08 2.71,-21.12 2.08,-15.42 4.78,-30.76 7.03,-46.14 2.26,-15.41 6.36,-30.48 7.56,-46.16 0.84,-10.9 4.3,-21.8 4.44,-32.82 0.21,-16.47 1.47,-32.93 0.39,-49.48 -0.85,-12.78 -2.78,-25.38 -4.02,-38.09 -0.94,-9.61 -3.82,-18.94 -4.99,-28.58 -2.8,-23.08 -6.59,-46.02 -7.07,-69.39 -0.28,-13.9 -1.62,-27.88 -3.83,-41.6 -1.42,-8.83 -5.28,-17.26 -8.08,-25.86 -0.51,-1.58 -1.68,-2.99 -1,-5.3 2.17,0.15 3.23,1.81 4.1,3.4 7.73,14.25 17.23,27.45 24.25,42.11 0.36,0.76 0.86,1.47 1.4,2.13 0.75,0.92 1.81,1.54 2.96,1.19 1.59,-0.46 2.26,-1.93 2.04,-3.36 -0.59,-3.99 -2.16,-7.61 -4.33,-11.03 -23.67,-37.23 -44.94,-75.85 -66.58,-114.27 -14.5,-25.76 -29.82,-51.1 -46.28,-75.73 -7.59,-11.38 -17.16,-20.98 -25.85,-31.37 -1.82,-2.17 -4.17,-3.11 -6.85,-2.24 -3.04,1 -1.24,3.93 -2.15,7.32 -22.02,-17.1 -42.99,-34.52 -66.89,-47.9 4.84,-1.3 8.78,0.74 12.23,2.71 12.84,7.38 26.75,12.2 40.17,18.16 17.11,7.61 33.91,16.28 48.87,27.81 4.38,3.36 11.06,3.49 13.88,7.5 3.29,4.71 7.79,6.28 12.02,8.93 5.54,3.47 10.86,7.31 16.38,10.81 12.69,8.06 24.85,16.9 37.63,24.85 7.42,4.62 14.17,10.4 21.54,15.22 2.72,1.78 4.5,5.01 6.73,7.55 3.34,3.81 3.4,3.82 10.66,4.07 -1.89,-4 -4.01,-7.65 -7.2,-10.2 -20.43,-16.31 -40.53,-33.04 -62.77,-46.96 -13.49,-8.44 -26.19,-18.15 -39.6,-26.73 -14.34,-9.17 -28.88,-18.06 -44.05,-25.93 -16.43,-8.52 -33.27,-16.03 -50.24,-23.4 -6.44,-2.79 -12.55,-6.41 -19.15,-9.07 -15.61,-6.27 -31.59,-11.23 -48,-14.65 -18.7,-3.89 -37.3,-7.85 -55.5,-13.91 -11.55,-3.85 -23.82,-5.5 -35.76,-8.19 -13.66,-3.09 -27.48,-4.69 -41.5,-4.47 -1.99,0.03 -3.98,-0.29 -5.96,-0.52 -4.07,-0.46 -6.03,-2.58 -5.8,-6.85 0.52,-10.05 -1.6,-19.81 -3.74,-29.51 -2,-9.19 -2.59,-18.59 -4.38,-27.76 -1.68,-8.63 -4.3,-17.07 -4.48,-25.95 -0.03,-0.85 -0.36,-1.72 -0.28,-2.55 2.64,-22.59 -5.86,-43.63 -9.17,-65.4 -2.86,-18.82 -7.37,-37.34 -10.15,-56.23 -2.85,-19.4 -5.54,-38.89 -9.45,-58.17 -3.34,-16.38 -6.08,-33.04 -6.99,-49.69 -0.81,-14.86 -0.41,-29.96 3.14,-44.78 1.11,-4.62 -0.37,-9.82 1.73,-14.58 0.55,-1.24 -0.39,-2.83 -1.66,-3.65 -1.62,-1.04 -3.36,-0.7 -4.85,0.26 -2.63,1.68 -3.14,4.58 -3.93,7.34 -2.72,9.37 -1.73,19.26 -4.33,29.76 -2.4,-7.49 -5.45,-13.85 -2.4,-21.05 0.58,-1.37 0.26,-2.87 -0.59,-4.07 -4.56,-6.36 -1.85,-11.81 2.12,-17.04 1.04,-1.4 2.05,-2.71 2.18,-4.53 0.17,-2.45 1.61,-5.3 -1.44,-6.89 -3.22,-1.68 -5.4,0.12 -7.05,2.8 -0.75,1.2 -1.66,2.36 -2.16,3.67 -3.7,9.5 -10.3,17.62 -13.01,27.57 -0.91,3.28 -1.87,6.58 -2.47,9.93 -2.26,12.58 -10.08,22.81 -14.41,34.54 -2.17,5.86 -3.08,12.13 -6.06,17.71 -0.78,1.45 -0.95,3.35 -3.78,3.65 -2.08,-2.58 -0.25,-5.74 -0.45,-8.56 -0.5,-6.81 -1.84,-13.47 -2.74,-20.19 -1.4,-10.41 -0.91,-20.97 -1.13,-31.43 -0.4,-19.07 -1.35,-38.1 -1.45,-57.16 -0.08,-15.06 -0.71,-30.18 0.89,-45.24 0.47,-4.47 -0.49,-9.07 -0.56,-13.63 -0.23,-14.75 -0.08,-29.53 0.07,-44.28 0.17,-18.15 -2.17,-36.34 0.53,-54.5 0.54,-3.62 -0.04,-7.4 0,-11.09 0.09,-7.62 -0.89,-15.28 3.06,-22.56 1.36,-2.5 1.13,-6.15 0.89,-9.21 -1.31,-16.89 2.73,-33.36 3.71,-50.08 1.03,-17.54 2.41,-35 2.14,-52.648 -0.15,-11.012 -0.32,-22.133 0.08,-33.211 0.24,-6.281 2.68,-9.871 8.62,-12.039 12.02,-4.422 23.46,-10.082 34.45,-16.742 7.51,-4.528 15.37,-8.59 23.17,-12.598 4.34,-2.231 9.86,-1.981 14.69,-3.703 3.96,-1.41 8.49,-1.02 11.99,-4.008 1.82,-1.563 3.79,0.129 5.69,0.328 2.49,0.27 4.7,-0.5 5.18,-3.23 0.49,-2.887 -1.63,-4.219 -4.01,-4.579 -9.89,-1.48 -19.75,-1.351 -29.56,0.86 -10.66,2.39 -20.48,6.949 -30.18,11.769 -7.64,3.782 -15.05,8.039 -22.77,11.68 -5.36,2.531 -10.79,5.25 -17.19,3.082 -4.32,-1.473 -6.8,1.809 -9.35,4.5 -0.83,0.879 -1.9,1.371 -2.99,0.621 -1.17,-0.801 -0.81,-2.043 -0.4,-3.101 8.95,-22.891 18.59,-45.379 38.51,-61.332 3.58,-2.868 4.63,-7.079 6.99,-10.579 1.76,-2.64 0.92,-4.699 -1.43,-6.64 -2.15,-1.77 -4.01,-1.668 -6.14,-0.141 -5.31,3.891 -10.41,8.031 -14.8,12.922 -13.18,14.66 -25.05,30.168 -32.61,48.641 -1.82,4.437 -3.33,4.629 -6.62,0.929 -6.67,-7.492 -12.04,-15.953 -16.27,-24.98 -2.61,-5.563 -5.74,-10.801 -7.44,-17.02 -1.41,-5.121 -5.94,-10.121 -12.1,-12.339 -5.14,-1.84 -5.05,-2.172 -2.68,-7.071 4.58,-9.472 10.74,-18.09 14.81,-27.82 1.21,-2.879 2.93,-5.563 4.08,-8.469 1.09,-2.742 1.57,-5.683 -1.87,-7.344 -3.09,-1.476 -4.82,0.524 -6.25,2.793 -3.18,5.059 -6.47,10.039 -9.36,15.25 -12.4,22.36 -27.48,43.02 -40.75,64.829 -2.78,4.601 -6.08,8.8 -7.5,14.128 -0.54,2.082 -1.5,4.403 -4.81,4.743 -1.68,-2.61 -1.45,-5.661 -1.56,-8.7 -0.33,-9.101 -0.95,-18.16 -2.21,-27.23 -0.97,-6.922 -1.02,-14.082 -1.02,-21.012 -0.03,-5.687 -1.67,-11.41 -0.5,-16.949 1.58,-7.531 1.43,-15.199 2.72,-22.711 0.95,-5.551 -1.53,-8.82 -6.94,-8.668 -1.69,0.051 -3.28,0.391 -5.03,-0.012 -7.46,-1.687 -8.82,-0.839 -10.57,6.411 -0.47,1.921 -0.91,3.992 -0.65,5.89 1.32,9.852 1.14,19.77 2.82,29.66 2.54,15.071 6.13,30.172 5.04,45.7 -0.09,1.378 0.31,2.851 -1.42,4.421 -3.87,-1.742 -7.37,-4.332 -10.66,-7.429 -8.11,-7.66 -15.23,-16.133 -21.57,-25.293 -2.64,-3.778 -5.8,-6.848 -9.96,-9.137 -8.86,-4.922 -13.73,-14 -20.74,-20.902 -1.41,-1.379 -2.32,-3.27 -4.15,-4.219 -1.82,-0.961 -3.81,-1.582 -5.67,-0.281 -1.91,1.34 -1.99,3.332 -1.25,5.379 0.88,2.39 1.42,5.062 2.86,7.101 9.27,13.16 17.74,26.871 29.27,38.461 6.23,6.25 12.39,12.481 19.16,18.141 7.88,6.617 13.78,15.129 20.78,22.617 4.07,4.351 2.67,10.441 2.58,15.562 -0.12,6.821 -0.36,13.641 -0.12,20.469 0.16,5.16 -1.21,9.66 -3.51,14.539 -3.45,7.262 -5.36,15.5 -5.92,23.621 -0.61,8.731 0.94,17.602 -2.61,26.07 -0.6,1.42 -0.42,3.51 0.13,5.03 2.45,6.76 1.39,13.48 0.3,20.26 -0.6,3.67 -0.95,7.32 0.25,10.99 0.42,1.31 0.82,3.1 0.27,4.17 -3.38,6.42 -0.86,13.31 -1.89,19.91 -1.22,7.83 -0.34,15.94 -3.16,23.54 2.97,13.03 -2.21,27.46 6.89,39.47 0.9,1.2 0.68,3.29 0.84,4.97 0.63,6.66 -0.81,13.27 1.48,20.14 1.1,3.39 -1.21,8.57 -1.26,13.1 -0.09,11.65 2.46,23.1 2.41,34.78 -0.02,6.5 1.6,12.96 -1.09,19.38 -0.7,1.67 -0.14,3.92 -0.02,5.9 1.41,21.89 2.76,43.78 4.32,65.68 0.46,6.41 0.14,12.48 -3.47,18.08 -0.89,1.4 -1.25,3.18 -1.72,4.81 -2.27,7.98 -2.25,7.98 -10.77,6.35"
       style="fill:#fff;fill-opacity:1;fill-rule:evenodd;stroke:none"
       id="path14"
       inkscape:connector-curvature="0"
       transform="scale(0.1)" /><path
       transform="scale(0.1)"
       d="m 1712.69,769.539 c -1.12,-0.258 -2.45,-0.59 -2.44,-1.84 0.01,-0.859 1.32,-0.98 2.08,-0.711 0.72,0.25 1.67,0.762 1.85,1.352 0.32,1.039 -0.64,1.211 -1.49,1.199 z m -43.81,-19.258 c 2.59,-0.699 4.5,-0.312 6.41,2.008 -2.8,0.422 -4.84,0.391 -6.41,-2.008 z m 4.61,-95.691 c -0.23,0.512 -0.39,1.379 -0.64,1.41 -1.93,0.148 -3.15,-0.93 -3.71,-2.68 -0.12,-0.371 0.29,-1.32 0.56,-1.371 2.06,-0.34 2.92,1.18 3.79,2.641 z m -945.4,-98.449 c 1.344,0.73 3.961,0.609 3.82,3.308 -0.14,2.61 -2.609,2.66 -4.543,2.871 -1.703,0.2 -3.945,0.16 -4.125,-1.91 -0.25,-2.73 1.973,-3.781 4.848,-4.269 z m 26.859,113.347 c 1.305,-2.386 2.477,-5.027 5.344,-4.379 3,0.68 6.949,-0.711 9.586,3.172 -5.199,1.289 -9.606,3.051 -14.93,1.207 z m 995.091,117.711 c -8.46,-5.469 -18.63,-6.148 -26.9,-14.59 9.96,0.661 15.96,7.411 23.97,8.641 1.46,0.219 3.14,2.262 2.93,5.949 z M 764.496,640.281 c 2.731,0.071 4.52,2.629 3.535,5.321 -1.375,3.808 -5.179,3.988 -8.261,5.097 -3.149,1.141 -6.161,0.621 -8.555,-1.91 -1.442,-1.519 -1.387,-3.418 0.531,-4.16 4.176,-1.617 8.18,-3.859 12.75,-4.348 z M 1793.24,793.23 c 2.33,0.071 9.06,5.04 9.86,7.301 0.97,2.739 -1.57,10.528 -4.18,12.34 -2.84,1.969 -4.06,-0.539 -5.33,-2.25 -1.16,-1.582 -4.03,-3.652 0.6,-4.609 2.58,-0.532 2.36,-2.172 1.13,-3.66 -1.24,-1.481 -2.95,-2.582 -4.35,-3.942 -1.07,-1.039 -1.71,-2.289 -0.62,-3.711 0.7,-0.937 1.69,-1.437 2.89,-1.469 z m -269.91,-90.769 c 16.67,3.859 34.44,2.828 50.02,11.508 -17.14,-1.809 -34.16,-4.149 -50.02,-11.508 z M 795.059,530.242 c 0.261,2.738 -1.141,3.508 -3.016,3.61 -4.008,0.199 -7.645,-1.352 -9.328,-4.782 -2.867,-5.82 -5.899,-11.488 -9.606,-16.8 -0.636,-0.93 -0.976,-2.18 0.133,-3.071 1.004,-0.82 2.141,-0.508 3.063,0.231 5.863,4.859 12.242,9.199 16.14,16.019 0.977,1.711 1.887,3.449 2.614,4.793 z m 487.371,137.727 c -3.21,2.801 -6.52,1.25 -9.59,0.39 -5.29,-1.429 -10.66,-1.738 -16.02,-2.308 -14.93,-1.551 -29.81,-3.11 -44.73,-4.719 -1.97,-0.223 -4.05,-0.371 -5.84,-1.121 -3.54,-1.481 -7.07,-1.609 -10.85,-1.391 -5.72,0.309 -11.02,-1.82 -17.02,-3.308 2.41,-2.223 5,-0.973 6.38,-2.262 5.49,-5.16 11.51,-3.02 17.56,-1.75 12.48,2.641 24.99,5.148 37.48,7.789 14.14,2.992 28.12,6.742 42.63,8.68 z M 654.332,558.781 c -4.352,-3.722 -5.019,-7.211 -3.984,-9.949 2.511,-6.742 -0.188,-14.922 5.953,-20.684 1.012,-0.949 0.91,-3.187 1.183,-4.847 0.387,-2.27 0.954,-4.43 2.379,-6.313 12.766,-16.797 30.02,-23.187 50.61,-21.808 0.257,0.011 0.457,0.859 0.797,1.531 -28.973,10.871 -51.719,27.758 -56.938,62.07 z m 1014.488,34.91 c 7.31,-5.312 14.52,-4.66 21.52,-5.269 17.35,-1.461 34.67,-2.852 51.86,1.367 10.84,2.691 21.59,5.461 28.89,15.09 2.51,3.332 4.11,6.562 3.13,10.672 -1.01,0.097 -1.6,0.301 -2.11,0.168 -0.8,-0.219 -1.61,-0.59 -2.31,-1.039 -19.14,-12.418 -40.34,-17.95 -62.89,-19.59 -12.22,-0.899 -24.44,-1.442 -38.09,-1.399 z m -880.269,-51.73 c 1.254,0.371 3.164,0.949 5.066,1.508 7.977,2.34 9.68,4.211 10.348,12.32 0.41,5.082 0.246,10.109 -0.727,15.231 -2.601,13.64 -8.953,25.71 -15.429,37.66 -2.5,4.621 -6.075,8.672 -12.942,7.468 -4.277,-0.738 -7.703,2.321 -7.726,6.051 -0.012,3.68 -0.356,6.731 -3.668,8.86 -2.836,1.839 -5.227,4.5 -8.821,4.941 -1.91,0.23 -4.007,1.289 -5.57,-0.602 -1.441,-1.718 -1.117,-3.796 -0.227,-5.636 1.86,-3.813 3.317,-7.992 5.926,-11.223 7.762,-9.629 13.067,-20.547 18.086,-31.68 5.5,-12.211 10,-24.718 10.613,-38.3 0.059,-1.411 0.168,-2.848 0.583,-4.188 0.546,-1.762 1.73,-2.922 4.488,-2.41 z m -123.324,35.5 c -3,-6.5 -0.309,-11.91 -0.793,-17.172 -1.84,-20.258 13.164,-30.801 24.558,-43.48 0.348,-0.379 0.969,-0.559 1.481,-0.809 9.445,-4.551 18.55,-9.609 28.84,-12.461 11.085,-3.07 21.324,0.68 31.902,1.84 0.773,0.082 1.519,0.75 2.207,1.25 6.406,4.551 11.148,10.48 14.527,17.551 0.891,1.879 1.449,3.781 -0.246,5.519 -1.34,1.403 -2.933,1.403 -4.715,0.93 -6.14,-1.609 -12.273,-2.43 -18.285,0.68 -0.683,0.351 -1.683,0.25 -2.508,0.132 -10.535,-1.453 -20.129,1.411 -29.382,6.141 -3.79,1.938 -7.887,3.328 -11.551,5.449 -10.09,5.821 -19.375,12.617 -27.207,21.43 -3.356,3.777 -4.641,8.82 -8.828,13 z m 86.625,-40.969 c 1.992,0 3.972,-0.012 5.964,0.02 1.989,0.019 4.004,-0.082 5.954,0.218 6.253,0.911 9.046,3.559 8.226,9.629 -1.582,11.711 -1.375,23.762 -7.226,34.692 -4.012,7.508 -6.989,15.558 -10.766,23.199 -4.41,8.891 -8.383,18.102 -15.586,25.332 -5.332,5.328 -6.762,5.43 -12.754,0.477 -7.258,-5.977 -7.887,-5.887 -12.484,1.91 -0.145,0.25 -0.211,0.531 -0.364,0.781 -3.105,5.141 -4.086,5.391 -9.371,2 -2.875,-1.852 -5.91,-3.551 -8.386,-5.859 -8.118,-7.52 -16.934,-14.77 -19.907,-26.02 -2.492,-9.391 -3.375,-19.199 1.801,-28.121 2.692,-4.629 6.383,-8.711 9.883,-12.84 2.18,-2.551 4.512,-5.68 8.223,-5.539 4.171,0.18 3.687,4.629 4.839,7.211 2.895,6.43 7.598,11.828 14.172,12.148 8.313,0.391 17.039,0.442 25.106,-3.421 10.637,-5.098 12.164,-18.68 2.656,-25.618 -3.078,-2.242 -6.523,-3.39 -10.25,-3.98 -1.391,-0.223 -2.984,-0.629 -2.66,-2.551 0.219,-1.289 1.473,-1.539 2.605,-1.73 6.727,-1.149 13.45,-2.371 20.325,-1.938 z m 907.848,171.5 c -6.19,-0.793 -12.09,-1.992 -17.85,-4.812 -8.15,-3.961 -12.6,-10.098 -13.87,-18.938 -0.62,-4.222 -1.92,-8.351 -1.77,-12.66 0.08,-2.41 -1.03,-4.391 -2.26,-6.332 -0.64,-1 -1.44,-2.051 -2.61,-1.941 -1.67,0.14 -2.09,1.601 -2.35,3.07 -0.85,5.062 -1.71,10.09 -2.66,15.133 -0.63,3.328 -2.07,3.91 -4.43,1.808 -5.36,-4.851 -6.31,-12.351 -10.61,-17.879 -0.44,-0.55 -0.28,-1.671 -0.19,-2.5 0.59,-4.812 -0.35,-9.55 0.13,-14.429 1.93,-19.071 14.57,-30.77 29.34,-35.492 11.77,-3.758 24.22,-5.872 36.69,-7.09 1.99,-0.2 4.31,-0.821 5.04,1.64 0.59,1.942 -1.42,2.961 -2.91,3.61 -7.86,3.351 -11.21,10.34 -13.8,17.621 -2.97,8.347 -5.73,16.898 0.66,25.211 0.96,1.218 1.14,3.218 1.26,4.898 0.44,6.449 4.22,9.891 9.72,12.84 8.54,4.559 16.46,6.301 24.31,-1.078 0.97,-0.91 2.58,-1.141 3.85,-1.781 2.23,-1.121 3.08,-2.582 0.86,-4.532 -2.05,-1.8 -1.47,-3.379 0.21,-5.039 2.45,-2.39 4.87,-4.808 7.23,-7.289 9.85,-10.351 13.11,-22.32 9,-36.199 -2.09,-7.043 -1.05,-8.312 6.06,-7.223 15.92,2.43 30.9,7.692 44.87,15.711 1.22,0.692 2.43,1.5 3.48,2.43 4.83,4.27 5.38,7.082 2.04,12.66 -3.54,5.879 -8.5,10.672 -13.17,15.649 -8.7,9.293 -20.19,14.742 -30.26,22.179 -7.61,5.621 -16.13,9.571 -24.67,13.5 -3.88,1.782 -6.48,1.75 -9.62,-1.816 -4.74,-5.383 -7.19,-4.953 -9.34,1.789 -1.5,4.699 -4.43,5.801 -8.26,5.359 -8.75,-0.968 -17.63,-1.851 -23.54,-9.859 -2.53,-3.43 -5.37,-6.621 -7.99,-10 -2.09,-2.691 -4.05,-5.551 -6.89,-7.539 -1.49,-1.043 -3.12,-3.192 -5.14,-1.012 -1.41,1.512 -0.34,3.078 0.64,4.59 2.64,4.031 5.75,7.891 7.66,12.262 3.75,8.519 9.78,14.449 17.95,18.578 1.7,0.851 3.57,1.91 3.19,4.902 z m 124.77,152.617 c -0.88,2.961 -3.68,4.18 -5.75,5.961 -1.83,1.578 -2.16,5.09 -6.75,4.86 4.8,-3.918 5.11,-11.379 12.73,-10.598 0.43,-1.793 0.38,-3.953 2.98,-4.102 0.3,-0.019 0.97,0.692 0.94,0.981 -0.29,2.449 -2.23,2.68 -4.15,2.898 z m -91.12,49.192 c 4.71,-6.242 11.76,-9.461 17.72,-13.922 2.88,-2.141 5.68,-4.688 9.37,-5.828 2.26,-0.699 2.73,-2.922 1.65,-4.949 -1.07,-2.02 -2.97,-2.59 -5.08,-1.43 -2.74,1.488 -5.55,2.91 -8.08,4.687 -14.6,10.313 -30.54,18.383 -46.05,27.063 -10.78,6.027 -21.57,12.5 -33.55,16.269 -8.93,2.809 -17.84,5.75 -26.73,8.68 -5.37,1.77 -10.35,4.879 -16.31,4.641 -1.93,-0.082 -3.91,0.25 -5.29,-1.133 -0.25,-4.27 6,-2.828 5.18,-7.731 -6.69,2.024 -13.29,4.051 -19.92,6.012 -13.28,3.922 -25.71,10.129 -39.19,13.82 -14.99,4.122 -29.86,8.891 -44.81,13.231 -12.83,3.711 -26.27,4.648 -39.44,6.84 -1.32,0.23 -2.82,-0.301 -4.17,-0.699 -4.38,-1.313 -7.92,0.218 -10.77,3.359 -1.81,2.008 -4.39,3.809 -2.57,7.34 1.84,3.59 4.54,4.769 8.39,4.281 3.96,-0.5 7.45,-2.461 11.57,-2.672 12.86,-0.699 25.39,-4.512 37.32,-8.32 12.34,-3.949 25.25,-6.719 37.06,-12.391 8.5,-4.058 18.23,-4.707 26.41,-9.679 1.85,-1.122 3.83,-0.348 5.8,0.14 17.76,4.399 34.83,1.641 51.59,-4.91 13,-5.059 26.07,-9.93 39.1,-14.859 1.33,-0.5 2.83,-0.731 4.02,-1.45 11.99,-7.179 25.38,-7.543 38.76,-8.211 5.39,-0.281 10.63,-1.968 15.43,-4.281 16.18,-7.808 31.52,-17.07 45.51,-28.398 3.11,-2.5 6.48,-4.61 9.58,-7.09 1.94,-1.531 3.85,-2.223 6.31,-1.602 6.96,1.743 13.15,-0.75 18.35,-4.839 11.64,-9.122 22.35,-19.321 31.21,-31.211 4.44,-5.938 7.29,-12.7 7.34,-20.399 0.02,-2.66 -0.84,-4.558 -3.49,-5.031 -2.65,-0.449 -4.61,1.109 -4.94,3.59 -0.81,6.211 -4.41,11.043 -7.3,16.242 -0.71,1.269 -1.6,2.398 -3.26,2.269 -1.87,-0.16 -1.88,-1.871 -2.4,-3.101 -0.96,-2.258 -0.82,-4.391 0.42,-6.547 2.44,-4.172 4.35,-8.742 7.22,-12.57 4.83,-6.442 6.68,-13.703 7.49,-21.422 0.59,-5.598 -1.93,-10.598 -5.51,-13.86 -6.4,-5.871 -12.45,-12.492 -20.97,-15.71 -3.86,-1.45 -7.69,-2.399 -11.65,-0.911 -4.54,1.68 -9.63,1.25 -13.98,3.723 -2.21,1.25 -4.25,0.656 -6.42,-0.594 -8.87,-5.09 -17.48,-10.648 -26.73,-15.109 -3.04,-1.457 -5.87,-3.59 -3.38,-8.07 1.37,-2.469 -0.83,-4.368 -2.96,-5.36 -5.43,-2.449 -8,-6.98 -9.65,-12.328 -1.01,-3.281 -2.14,-6.5 -4.16,-9.332 -2.44,-3.43 -2.13,-5.84 1.93,-8.207 14.99,-8.801 30.03,-17.543 44.51,-27.102 12.34,-8.16 24.22,-17.089 30.91,-31.121 2.67,-5.57 4.17,-11.32 3.27,-17.339 -0.94,-6.321 -0.64,-12.438 0.87,-18.559 1.99,-8.129 -1.07,-14.531 -5.33,-21.492 -10.31,-16.828 -26.97,-21.699 -44.31,-25.727 -18.61,-4.332 -37.36,-2.094 -56.11,-0.953 -21.83,1.332 -41.72,8.84 -60.88,18.473 -15.31,7.687 -27.49,19.027 -35.85,34.25 -4.16,7.57 -5.77,15.738 -4.68,23.988 2.23,16.789 8.2,31.922 22.08,42.93 7.59,6.011 15.62,11.379 23.44,17.05 4.73,3.45 8.13,8.442 13.97,10.7 9.13,3.531 18.06,6.699 28.18,4.711 7.06,-1.403 9.99,1.281 9.3,7.05 -0.39,3.368 -2.04,4.489 -5.22,3.418 -17.78,-5.988 -35.55,-12.007 -53.32,-17.988 -3.77,-1.269 -7.8,-3.941 -11.31,-3.41 -9.84,1.5 -16.44,-4.66 -25.13,-8.191 6.26,-5.239 15.23,1.402 19.87,-5.778 -0.62,-2.273 -2.31,-2.902 -3.98,-2.933 -7.38,-0.098 -14.63,-1.489 -22.12,-1.207 -11.61,0.418 -23.18,-1.25 -34.49,-4.282 -11.79,-3.14 -23.7,-6.031 -35.3,-9.648 -11.39,-3.543 -22.94,-6.453 -34.3,-10.043 -3.88,-1.207 -7.65,-1.848 -11.67,-2.168 -9.41,-0.711 -18.26,-4.313 -27.21,-6.879 -4.2,-1.223 -8.59,-3.922 -13.09,-5.402 -2.68,-0.899 -5.55,-1.36 -8.36,-1.66 -4.71,-0.52 -9.28,-0.649 -10.74,5.519 -0.7,3.043 -3.48,3.211 -6.06,3.731 -7.44,1.492 -14.91,0.41 -22.05,-0.961 -18.39,-3.52 -36.87,-6.649 -55.07,-11.129 -9.11,-2.239 -18.43,-3.559 -27.67,-5.211 -3.25,-0.559 -6.1,1.133 -9.05,2.101 -1.9,0.621 -3.74,2.231 -5.53,2.11 -12.55,-0.84 -24.93,-2.68 -36.63,-7.95 1.34,-2.91 3.21,-2.468 4.83,-2.789 7.83,-1.472 15.65,-3.011 23.48,-4.55 1.22,-0.231 2.16,-1.051 2.21,-2.25 0.05,-1.262 -0.96,-2.082 -2.16,-2.2 -2.26,-0.191 -4.56,-0.531 -6.8,-0.281 -11.31,1.219 -22.66,1.93 -33.88,4.211 -7.48,1.539 -15.25,2.02 -22.91,2.231 -7.22,0.179 -13.42,-4.372 -20.51,-5.563 -7.9,-1.328 -15.85,-1.508 -23.75,-2.578 -2.59,-0.359 -5.38,-0.102 -5.94,3.301 -0.51,3.199 0.8,5.707 3.85,6.828 2.36,0.851 4.88,1.242 7.81,1.949 -7.51,2.801 -17.3,3.25 -24.02,1.859 -12.79,-2.636 -25.63,-5.046 -38.46,-7.437 -3.06,-0.59 -7.34,-1.262 -8.28,2.051 -1.14,3.929 3.8,3.968 6.19,5.609 1.84,1.25 4.44,1.149 6.29,3.859 -3.4,1.141 -6.56,1.918 -9.9,1.461 -7.96,-1.14 -15.92,-0.57 -23.88,-0.32 -6.26,0.188 -12.59,-0.992 -18.68,-0.75 -13.88,0.508 -25.73,-6.781 -38.81,-8.43 -12.27,-1.543 -24.713,-2.449 -37.19,-0.109 -11.77,2.207 -23.809,2.25 -35.75,2.387 -13.172,0.191 -25.937,3.019 -38.859,4.941 -1.625,0.231 -3.161,1.238 -4.707,1.942 -5.473,2.457 -11.411,2.937 -17.121,4.257 -11.325,2.633 -23.192,1.571 -34.211,5.77 -3.086,1.18 -6.614,1.223 -11.664,2.09 5.73,-5.731 11.562,-7.508 17.164,-9.258 -0.024,-3.141 -2.008,-2.981 -3.59,-2.66 -9.457,1.801 -19.137,3.008 -28.293,5.847 -9.305,2.891 -18.887,4.211 -28.246,6.633 -1.641,0.418 -3.368,0.758 -5.055,0.739 -3.344,-0.028 -4.914,-2.461 -2.852,-5.079 3.516,-4.441 5.731,-10.089 10.383,-13.429 3.942,-2.801 6.457,-6.242 8.305,-10.532 2.269,-5.261 6.781,-8.992 9.691,-13.96 3.606,-6.122 5.231,-13.309 10.207,-18.68 1.137,-1.219 0.907,-2.891 -0.601,-3.559 -1.863,-0.832 -2.555,0.93 -2.77,2.239 -1.781,10.851 -10.023,17.429 -16.293,25.402 -4.89,6.226 -8.758,13.258 -14.644,18.726 -1.035,0.973 -1.781,2.274 -2.899,3.09 -2.027,1.492 -4.273,1.371 -4.101,-1.566 0.222,-3.832 -1.074,-6.793 -2.559,-10.18 -1.676,-3.844 -0.972,-8.211 1.785,-12.113 6.559,-9.289 13.692,-18.34 18.649,-28.59 4.613,-9.527 10.73,-18.648 11.101,-29.809 0.063,-1.691 -0.011,-3.839 1.922,-4.378 2.531,-0.75 3.422,1.668 4.199,3.339 3.395,7.309 5.981,14.821 4.247,23.11 -0.278,1.32 -0.637,2.988 1.261,3.48 1.707,0.43 2.637,-0.941 3.239,-2.179 0.613,-1.243 1.113,-2.711 1.105,-4.063 -0.156,-13.609 -1.762,-26.801 -11.746,-37.32 -2.184,-2.321 -4.094,-4.797 -4.934,-7.91 -2.273,-8.399 -7.215,-15.45 -11.562,-22.789 -2.656,-4.469 -7.02,-7.348 -10.571,-11.008 -1.269,-1.301 -3.828,-2.27 -2.445,-4.723 0.934,-1.66 2.926,-1.617 4.637,-1.258 6.652,1.438 13.473,2.168 19.687,5.399 9.063,4.711 18.629,8.23 26.809,14.808 6.59,5.321 10.719,12.5 16.531,18.301 0.953,0.949 1.461,2.891 3.117,2.223 2.11,-0.84 1.61,-2.91 0.821,-4.383 -1.481,-2.719 -3.231,-5.328 -4.992,-7.91 -7.629,-11.149 -17.082,-20.821 -28.301,-27.957 -9.266,-5.891 -20.364,-8.653 -31.016,-11.821 -20.293,-6.019 -41.469,-7.421 -62.113,-11.671 -10.973,-2.258 -22,-2.141 -32.813,2.089 -5.531,2.161 -11.539,3.09 -17.3,4.7 -25.063,7.062 -42.141,23.261 -51.774,47.043 -3.168,7.839 -3.262,16.738 -2.765,25.277 0.925,15.98 6.101,30.383 15.496,43.543 4.781,6.668 9.101,13.726 13.898,20.437 0.789,1.11 2.309,2.641 0.965,3.743 -5.024,4.179 -0.668,5.679 2.07,7.168 11.055,5.949 20.617,14.128 31.063,20.98 5.883,3.871 10.988,9.039 16.047,14.02 3.628,3.57 2.339,8.039 -2.696,8.89 -11.82,1.988 -23.031,6.692 -34.648,8.602 -15.41,2.539 -30.535,6.148 -45.738,9.488 -9.696,2.141 -19.153,5.449 -28.29,9.43 -2.992,1.312 -6.8,2.582 -6.445,6.91 0.192,2.441 5.238,3.09 10,1.082 20.348,-8.524 41.582,-13.442 63.379,-16.371 7.035,-0.961 13.965,-2.66 20.945,-4.012 8.442,-1.648 16.977,-1.367 25.496,-1.48 3.333,-0.047 5.493,0.921 6.555,4.121 0.539,1.64 1.285,3.199 2.762,4.218 1.687,1.192 3.555,1.973 5.586,1.063 1.969,-0.902 1.539,-2.789 1.597,-4.461 0.278,-7.621 1.356,-8.941 8.758,-8.77 7.164,0.161 14.004,-2.109 21.168,-2.179 6.789,-0.059 13.535,-1.91 20.414,-0.719 1.348,0.238 2.903,0.039 4.219,-0.383 13.262,-4.328 26.988,-5.289 40.746,-7.019 11.512,-1.418 22.992,-3.141 34.613,-3.75 12,-7.149 26.149,-4.309 38.957,-8.371 9.899,-3.149 20.672,-4.118 31.219,-3.93 16.813,0.301 33.606,0.07 50.36,-1.289 12.914,-1.039 25.481,1.969 38.231,2.808 9.99,0.653 19.95,0.731 29.9,0.422 17.31,-0.558 34.61,-1.59 51.94,-1.308 4.54,0.07 9.14,-0.141 13.63,-0.774 17.01,-2.379 33.93,-3.898 50.53,2.282 3.27,1.218 6.67,1.32 10.11,1.441 3.96,0.109 7.85,0.141 11.51,2.449 3.5,2.199 7.82,0.988 11.72,1.66 15.17,2.571 30.46,4.469 45.54,7.27 20.54,3.808 41.24,4.871 61.91,6.39 16.11,1.168 32.37,1.149 48.52,0.559 13.06,-0.48 26.12,-1.379 39.21,-1.547 3.2,-0.031 6.38,0.219 9.1,1.86 8.56,5.179 18.4,4.988 27.71,7.16 16.89,3.91 34.15,5.777 50.95,10.476 14.18,3.961 28.16,9.102 43,10.723 4.42,0.48 8.68,2.621 12.97,4.16 9.94,3.578 20.11,6.199 30.52,8.039 6.47,1.16 12.19,4.672 18.65,6.129 12.76,2.871 25.54,5.891 38.02,9.742 11.13,3.43 21.47,9.028 32.24,13.489 17.32,7.21 34.38,15.171 51.16,23.582 9.6,4.789 19.48,9.378 27.53,16.91 4.63,4.328 10.96,6.058 16.56,8.57 7.5,3.348 13.56,8.43 19.41,13.609 9.48,8.379 6.77,26.469 -4.5,32 -4.82,2.368 -6.17,7.25 -9.57,10.59 -1.62,1.578 -0.51,4.449 0.78,6.391 3.09,4.617 1.58,8.258 -2.54,10.879 -4.53,2.879 -6.1,8.148 -10.21,11.39 -8.05,6.348 -16.52,12.059 -25.61,16.75 -5.03,2.641 -9.83,5.86 -15.44,7.258 -2.05,0.531 -4.19,1.992 -6.69,-0.398"
       style="fill:#fff;fill-opacity:1;fill-rule:evenodd;stroke:none"
       id="path16"
       inkscape:connector-curvature="0" /><path
       transform="scale(0.1)"
       d="m 970.52,931.16 c 5.105,-2.82 9.16,-1.73 12.234,-4.398 5.531,-4.864 8.695,-5.043 14.797,-0.973 7.309,4.859 15.179,8.781 23.289,11.871 11.27,4.32 20.85,12.121 32.63,15.281 1.2,0.321 1.91,1.559 1.36,2.649 -0.52,1.031 -1.85,1.25 -3.01,0.742 -2.31,-1 -4.31,-2.5 -6.98,-2.941 -12.81,-2.071 -25.19,-6.102 -38.02,-8.192 -3.38,-0.527 -7.328,-1.847 -8.832,-5.918 -1.062,-2.883 -3.515,-3.281 -6.117,-3.781 -6.574,-1.219 -13.105,-2.641 -21.351,-4.34 z M 751.566,866.492 c 7.278,-2.512 10.563,2.309 14.61,4.367 12.308,6.243 26.336,7.192 38.668,13.27 3.496,1.73 7.16,3.34 10.926,4.691 15.8,5.68 32.316,9.11 47.921,15.43 11.051,4.488 22.168,8.832 33.457,12.621 7.586,2.539 14.356,7.41 21.977,9.059 11.844,2.601 22.16,8.57 33.297,12.64 5.586,2.051 11.031,4.461 16.644,6.399 8.957,3.101 19.125,2.293 27.211,8.32 0.641,0.473 1.614,0.543 2.45,0.699 20.613,4.024 40.423,11.442 61.263,14.582 2.09,0.321 4.7,0.371 6.68,2.77 -4.4,0.98 -8.03,0.601 -11.58,-0.668 -8.62,-3.102 -17.7,-3.953 -26.64,-5.141 -15.17,-1.992 -29.915,-6.199 -45.067,-8.289 -8.981,-1.242 -17.313,-5.594 -26.117,-7.121 -14.004,-2.461 -27.094,-7.711 -40.61,-11.59 -12.258,-3.5 -24.074,-8.543 -36.035,-13.031 -10.031,-3.738 -19.984,-7.66 -29.992,-11.488 -4.512,-1.731 -8.871,-3.782 -13.52,-5.223 -8.675,-2.699 -17.148,-6.34 -25.191,-10.297 -12.461,-6.16 -25.242,-11.582 -37.738,-17.633 -7.809,-3.777 -15.547,-7.711 -22.614,-14.367 z m 1.461,-17.262 c -9.437,-3.699 -17.875,-7.589 -26.488,-11.011 -16.75,-6.637 -32.047,-15.918 -47.637,-24.649 -10.781,-6.05 -21.589,-12.199 -31.418,-19.8 -6.914,-5.34 -12.289,-11.77 -13.328,-20.86 -0.203,-1.738 -0.09,-3.66 -1.922,-4.39 -1.847,-0.739 -3.14,0.582 -4.308,1.949 -1.242,1.472 -1.875,4.211 -4.071,3.98 -3.281,-0.367 -7.167,-0.738 -9.574,-2.64 -12.457,-9.879 -24.496,-20.239 -35.082,-32.2 -2.976,-3.371 -4.101,-6.078 0.938,-8.55 1.683,-0.848 1.965,-2.528 0.668,-4.34 -3.114,-4.328 -11.309,-5.797 -15.336,-2.43 -2.813,2.32 -4.34,5.109 -2.188,8.961 4.918,8.762 10.602,16.898 18.614,23.109 6.753,5.231 14,9.821 19.742,16.282 2.699,3.05 6.824,3.859 10.043,6.339 12.629,9.692 25.23,19.391 37.465,29.629 6.125,5.153 12.98,9.879 20.324,13.789 6.652,3.571 13.058,7.844 19.418,11.993 12.218,7.98 25.015,14.601 38.633,19.648 6.113,2.25 10.664,5.43 13.98,11.383 3.434,6.117 8.078,11.43 15.348,14.09 6.613,2.418 12.679,6.347 19.175,9.187 23.27,10.223 45.403,22.871 70.094,30.172 12.559,3.711 24.41,10.399 36.844,15.09 15.949,6.008 31.926,12.008 48.285,16.91 5.984,1.789 11.899,3.82 17.914,5.488 26.82,7.473 53.76,14.352 81.34,18.621 15.17,2.34 30.24,5.45 45.31,8.442 8.7,1.726 17.52,2.308 26.29,3.098 14.45,1.289 28.91,2.66 43.37,3.8 17.56,1.379 35.1,3.02 52.71,3.621 2.55,0.079 5.15,0.219 7.34,-1.562 2.05,-1.668 3.99,-3.57 3.24,-6.449 -0.79,-2.981 -3.43,-2.469 -5.68,-2.239 -2.39,0.231 -4.79,0.129 -6.02,-2.171 -3.2,-6.02 -9.26,-5.188 -14.32,-5.571 -14.15,-1.058 -28.23,-2.539 -42.26,-4.558 -16.06,-2.332 -31.65,-6.782 -47.06,-11.692 -6.68,-2.129 -12.78,-6.008 -19.46,-8.097 -8.85,-2.77 -16.62,-8.782 -26.33,-8.961 -2.14,-0.032 -3.75,-1.141 -5.45,-2.172 -16.78,-10.25 -34.49,-18.598 -53.153,-24.75 -3.859,-1.27 -7.164,-3.41 -10.839,-4.899 -1.817,-0.73 -3.379,-2.148 -5.543,-2.019 -1.2,0.078 -2.27,0.359 -2.629,1.668 -0.27,0.922 0.238,1.633 0.996,2.113 2.058,1.27 5.941,1.52 5.14,4.68 -0.953,3.707 -4.957,1.687 -7.398,1.808 -8.172,0.379 -16.566,0.782 -22.785,-6.308 -1.211,-1.371 -2.793,-1.66 -4.66,-1.274 -14.985,3.16 -28.707,-2.566 -42.289,-7.109 -5.602,-1.848 -11.446,-3.02 -17.047,-4.867 -7.27,-2.371 -14.09,-5.66 -21.196,-8.321 -17.824,-6.722 -35.968,-12.769 -52.757,-21.961 -13.172,-7.179 -26.282,-14.519 -39.243,-22.109 -14.621,-8.582 -30.047,-15.789 -44.867,-24.051 -13.383,-7.468 -26.469,-15.511 -39.617,-23.39 -3.711,-2.239 -7.723,-3.641 -11.781,-4.969 -1.903,-0.602 -4.176,-1.441 -5.367,0.801 -1.383,2.629 0.511,4.75 2.683,5.32 7.328,1.938 13.086,6.789 19.68,10.066 16.015,7.961 31.566,16.723 46.547,26.571 4.355,2.863 9.691,4.441 14.265,7.269 1.2,0.731 2.551,1.352 2.707,4.492"
       style="fill:#fff;fill-opacity:1;fill-rule:evenodd;stroke:none"
       id="path18"
       inkscape:connector-curvature="0" /><path
       transform="scale(0.1)"
       d="m 2102.16,924.18 c 0.22,0.57 -0.02,0.968 -0.72,0.949 -0.51,-0.02 -1,-0.231 -1.5,-0.359 0.25,-0.372 0.47,-1.02 0.77,-1.059 0.45,-0.063 0.96,0.277 1.45,0.469 z m 366.29,10.468 c -37.04,-4.179 -73.08,-6.687 -109.07,-9.769 -26.36,-2.258 -52.88,-2.41 -79.12,-6.117 -8.18,-1.153 -16.51,-0.981 -24.72,-1.172 -25.96,-0.539 -51.71,-3.719 -77.61,-4.961 -17.87,-0.848 -35.89,-1.707 -53.62,-3.949 -19.73,-2.508 -39.77,-2.539 -59.24,-7.239 -2.99,-0.722 -6.26,-0.73 -9.36,-0.492 -12.58,1.031 -24.9,-0.758 -37.29,-2.699 -13.47,-2.109 -27.06,-3.539 -40.6,-5.25 -1.69,-0.199 -3.48,-0.59 -5.11,-0.289 -2.92,0.559 -7.85,-0.969 -8.31,2.371 -0.58,4.27 4.61,2.578 7.17,3.617 13.21,5.403 27.38,4.801 41.18,6.223 12.42,1.269 25.16,1.937 37.04,4.808 11.13,2.7 21.85,7.79 33.33,10.102 1.77,0.359 4.13,1.988 1.08,4.078 -3.56,2.43 -1.33,3.781 0.91,4.59 9.36,3.359 18.77,6.18 28.96,6.281 8.81,0.078 17.66,0.867 26.4,2.09 24.61,3.438 49.41,4.188 74.14,5.418 13.58,0.672 27.33,1.203 41,-0.488 9.68,-1.199 19.27,1.09 28.93,1.578 7.69,0.383 15.29,0.551 23.02,0.18 9.88,-0.469 19.97,0.05 29.74,1.589 15.8,2.493 31.73,2.813 47.58,4.114 23.84,1.976 47.79,2.738 71.72,2.578 8.22,-0.07 16.45,-1.442 24.65,-2.399 1.64,-0.179 3.24,-1.05 4.73,-1.851 0.97,-0.52 1.75,-1.488 1.3,-2.809 -0.44,-1.301 -1.57,-1.633 -2.72,-1.492 -2.84,0.332 -5.65,0.793 -8.47,1.199 -16.45,2.282 -33.01,1.703 -49.51,1.172 -15.09,-0.461 -30.19,-1.34 -45.22,-2.719 -18.43,-1.671 -36.78,-4.132 -55.19,-6.062 -7.93,-0.82 -15.91,-1.109 -23.86,-1.731 -17.01,-1.367 -33.98,-3.578 -51.01,-3.976 -20.9,-0.473 -41.2,-5.242 -61.86,-7.192 -2.13,-0.199 -4.59,-0.14 -6.31,-2.91 5.93,-1.238 11.56,-0.832 17.16,-0.511 13.93,0.761 27.86,1.832 41.8,2.32 21.36,0.769 42.68,2.351 63.99,3.691 16.2,1.02 32.34,2.532 48.48,3.629 14.72,1.012 29.46,2.461 44.28,2.813 12.77,0.289 25.47,2.789 38.33,2.886 7.39,0.071 14.79,-0.019 22.17,0.981 2.67,0.383 5.67,0.703 9.11,-2.231"
       style="fill:#fff;fill-opacity:1;fill-rule:evenodd;stroke:none"
       id="path20"
       inkscape:connector-curvature="0" /><path
       transform="scale(0.1)"
       d="m 2272.24,848 c 4.09,-0.691 8.53,-5.281 12.31,0.371 -4.11,-0.199 -8.18,2.488 -12.31,-0.371 z m -213.88,-12.219 c -4.09,1.699 -7.33,-0.801 -10.78,-1.761 -4.21,-1.129 -8.09,-1.29 -10.35,3.179 -2.12,4.211 -6.22,3.34 -9.65,4.262 -1.58,0.418 -3.72,0.41 -3.48,2.789 0.17,1.781 1.85,2.059 3.29,2.02 17.26,-0.438 33.92,3.468 50.71,6.652 6.41,1.219 12.98,2.117 19.5,2.34 24.99,0.82 49.83,4.418 74.91,4.109 18.52,-0.223 37,1.25 55.54,1.07 19.38,-0.179 38.78,-0.222 58.06,-1.82 25.67,-2.129 51.15,0.438 76.71,1.578 17.91,0.813 35.92,1 53.68,3.133 15.81,1.887 31.98,0.5 47.48,5.156 1.83,0.543 3.82,0.891 5.97,-0.269 -2.69,-4.278 -6.79,-5.09 -11.03,-5.688 -20.89,-2.972 -41.93,-4.383 -62.96,-5.801 -8.24,-0.57 -16.5,-0.929 -24.73,-1.55 -2.79,-0.219 -5.67,-0.5 -7.96,-2.52 8.93,-10.859 21.2,-9.5 33.16,-9.281 5.28,0.121 10.64,0.871 16.46,-1.277 -2.49,-3.653 -5.83,-3.481 -8.64,-3.43 -21.63,0.457 -43.24,-0.66 -64.92,0.348 -17.01,0.8 -34.15,1.312 -51.22,0.55 -13.68,-0.601 -27.32,0.168 -40.99,-0.101 -21.29,-0.43 -42.6,-0.43 -63.9,-1.071 -11.67,-0.347 -23.4,0.512 -35.03,-0.226 -11.92,-0.75 -24.05,-0.133 -35.7,-2.211 -12.88,-2.301 -25.77,-4.191 -38.71,-5.922 -2.58,-0.348 -4.89,-1.488 -7.15,-2.707 -2.58,-1.383 -5.26,-2.621 -7.92,-0.352 -2.26,1.95 -0.63,4.2 -0.25,6.352 0.14,0.789 -0.07,1.609 -0.1,2.449"
       style="fill:#fff;fill-opacity:1;fill-rule:evenodd;stroke:none"
       id="path22"
       inkscape:connector-curvature="0" /><path
       transform="scale(0.1)"
       d="m 2542.78,776.391 c -9.04,-2.18 -16.99,-1.559 -24.86,-1.832 -27.86,-0.969 -55.75,0.941 -83.61,0.101 -18.55,-0.57 -37,0.551 -55.5,1.301 -5.4,0.23 -10.82,-0.141 -16.23,-0.191 -3.84,-0.04 -7.32,-0.52 -9.57,-4.329 -1.59,-2.711 -4.42,-3.449 -7.45,-3.152 -11.62,1.172 -23.3,-0.879 -34.96,1.441 -6.3,1.282 -12.97,-0.898 -19.52,-1.101 -16.77,-0.488 -33.72,-0.309 -50.22,-2.84 -23.93,-3.687 -48.18,-4.738 -71.94,-9.719 -9.72,-2.039 -19.72,-2.808 -29.35,-5.5 -0.82,-0.218 -1.68,-0.32 -2.53,-0.398 -6.95,-0.641 -7.54,0 -6.48,7.59 -11.12,-1.121 -22.15,-1.66 -33.19,-1.711 -3.13,-0.012 -6.3,-0.11 -9.37,0.379 -3.22,0.492 -5.84,2.32 -6.85,5.699 -1,3.32 1.11,5.769 4.5,4.93 16.73,-4.098 33.47,-1.11 49.98,0.882 27.69,3.348 55.38,7.188 82.75,12.469 24.44,4.738 49.08,7.09 73.74,9.16 15.53,1.289 31.19,1.899 46.91,1.262 16.15,-0.633 32.2,-2.32 48.34,-2.672 3.1,-0.07 6.66,0.27 9.06,-1.859 5.64,-4.992 12.6,-5.039 19.26,-5.332 13.93,-0.637 27.92,-0.867 41.87,-0.668 8.87,0.109 17.5,-2.012 26.4,-1.492 15.9,0.921 31.87,-0.86 47.78,0.8 3.39,0.36 6.82,-0.019 11.04,-3.218"
       style="fill:#fff;fill-opacity:1;fill-rule:evenodd;stroke:none"
       id="path24"
       inkscape:connector-curvature="0" /><path
       transform="scale(0.1)"
       d="m 1287.99,2452.64 c 0.91,0.03 1.49,0.56 1.7,1.38 0.2,0.79 -0.07,1.67 -1.04,1.39 -0.57,-0.16 -1.04,-1.01 -1.35,-1.65 -0.1,-0.22 0.45,-0.75 0.69,-1.12 z m -24.2,-21.78 c 7.88,2.88 12.92,9.29 19.31,13.95 0.29,0.21 -0.21,1.5 -0.53,3.4 -6.05,-6.82 -14.58,-9.58 -18.78,-17.35 z m -194.15,215.66 c 7.91,1.34 17.16,6.1 22.41,11.55 -6.48,3.82 -12.61,0.66 -22.41,-11.55 z m -25.23,-31.58 c 10.76,4.45 18.66,11.76 28.59,15.47 1.28,0.47 2.49,1.38 3.44,2.38 0.96,1.02 1.73,2.52 1,3.9 -0.83,1.6 -2.39,1.12 -3.73,0.6 -11.61,-4.54 -21.75,-10.99 -29.3,-22.35 z m -48.234,-155.13 c 5.584,7.06 5.644,13.58 3.414,21.44 -3.731,13.14 -4.613,26.75 -3.305,40.56 0.668,7.06 2.195,13.95 2.754,20.98 0.106,1.45 0.156,2.98 -1.566,3.52 -2.305,0.72 -2.926,-0.99 -3.446,-2.67 -2.609,-8.39 -6.031,-16.64 -7.558,-25.22 -1.434,-8.03 -3.555,-16.04 -2.985,-24.44 0.864,-12.46 4.082,-23.87 12.692,-34.17 z m 10.224,54.11 c -0.26,-2.92 -0.53,-4.33 -0.47,-5.71 0.71,-18.74 6.08,-36.18 13.31,-53.41 5.74,-13.68 16.2,-19.5 29.56,-21.07 9.78,-1.15 19.55,-3.8 29.59,-2.15 1.38,0.23 3.32,-0.31 2.49,-2.24 -1.56,-3.7 1.01,-3.36 3.18,-4.1 11.29,-3.86 23.25,-4.82 34.6,-8.26 8.6,-2.61 17.3,-2.82 26.1,-2.23 1.54,0.11 3.62,-0.36 4.1,3.23 -1.63,1.41 -4.42,2.87 -5.71,5.17 -1.39,2.48 -2.64,5.84 0.7,8.38 2.93,2.25 4.75,0.27 6.44,-1.74 7.89,-9.39 19.41,-9.55 29.08,-7.58 22.75,4.64 44.69,12.61 65.94,22.3 4.99,2.29 9.1,5.75 13.97,8.09 9.62,4.62 17.44,11.86 24.58,19.45 7.72,8.19 13.88,17.87 19.26,27.72 6.78,12.44 6.3,26.3 4.93,40.05 -1.29,12.85 -5.48,24.98 -8.5,37.41 -2.53,10.4 -9.77,17.05 -16.5,24.3 -0.42,0.45 -1.57,0.2 -2.51,0.3 -0.2,-0.96 -0.68,-1.87 -0.47,-2.57 3.33,-10.74 2.86,-21.95 4.02,-32.97 0.29,-2.81 0.82,-5.73 -0.53,-8.39 -0.87,-1.69 -2.72,-2.19 -4.42,-1.69 -1.24,0.34 -1.19,1.76 -1.03,2.91 1.19,8.56 -0.53,16.97 -1.56,25.37 -1.96,15.96 -10.49,28.55 -21.22,39.88 -2.43,2.56 -5.07,4.9 -8.71,1.59 -2.26,-2.04 -4.81,-1.04 -5.93,0.88 -3.49,6.02 -8.69,8.72 -14.86,11.79 -5.55,2.75 -11.02,4.98 -16.89,6.64 -5.73,1.63 -11.09,4.77 -17.12,5.08 -13.36,0.65 -26.23,4.69 -39.64,5.06 -11.37,0.29 -22.74,1.34 -33.94,-1.57 -6.24,-1.62 -6.68,-2.84 -3.4,-8.75 0.68,-1.22 1.75,-2.38 0.19,-3.78 -5.51,-0.74 -10.02,4.74 -15.45,3.12 -5.08,-1.52 -10.23,-3.61 -13.42,-8.63 1.99,-1.27 3.41,-0.73 4.76,-0.47 12.81,2.51 25.46,1.73 38.04,-1.47 1.93,-0.48 3.98,-0.59 5.43,-2.2 0.76,-0.82 1.64,-1.66 1.22,-2.95 -0.43,-1.33 -1.73,-1.75 -2.72,-1.36 -5.77,2.24 -11.8,1.53 -17.66,1.29 -7.3,-0.28 -14.6,-0.3 -21.95,-1.55 -11.87,-1.99 -22.17,-7.25 -32.05,-13.37 -8.62,-5.34 -17.96,-9.41 -25.34,-17.06 -5.72,-5.93 -9.22,-12.95 -13.16,-19.72 -8.54,-14.7 -12.64,-30.88 -13.35,-47.84 -0.29,-6.77 2.59,-12.09 8.52,-15.6 1.7,-1.02 3.37,-2.1 5.06,-3.14 1.1,-0.68 1.71,-1.76 1.13,-2.84 -0.55,-1.01 -1.85,-1.25 -3.02,-0.97 -4.96,1.2 -9.34,3.73 -14.67,7.37 z m -29.978,-17.87 c 2.387,32.95 14.422,62.21 32.358,88.97 8.98,13.4 20.84,24.86 30.2,38.04 10.64,14.96 24.19,26.97 37.01,39.76 6.08,6.07 13.44,7.42 21.2,3.75 9.91,-4.69 19.96,-3.3 29.77,-0.71 14.17,3.77 28.47,6.22 43.07,5.23 10.68,-0.71 21.33,-2.26 31.84,-4.23 4.38,-0.82 8.59,-0.67 12.69,-0.11 12.7,1.77 23.24,-3.92 33.91,-9.13 5.27,-2.58 9.67,-6.64 15.06,-9.34 3.6,-1.82 6.19,-6.18 9.5,-9.21 6.9,-6.32 13.11,-13.17 17.17,-21.99 4.84,-10.56 10.59,-20.69 18.25,-29.66 14.5,-16.99 19.16,-36.92 13.81,-58.28 -4.34,-17.35 -6.94,-35.19 -13.17,-51.98 -7.66,-20.6 -19,-38.83 -37.84,-51.4 -4.71,-3.16 -9.97,-4.19 -15.3,-3.72 -3.19,0.28 -6.12,0.3 -9.2,-0.47 -14.23,-3.54 -28.47,-7.04 -42.76,-10.42 -5.52,-1.31 -11.03,-2.19 -16.86,-1.09 -6.8,1.27 -13.59,-0.23 -20.24,-1.85 -8.85,-2.15 -17.81,-5.17 -26.78,-4.97 -10.74,0.25 -21.28,-1.51 -31.84,-1.53 -18.79,-0.03 -37.57,1.53 -55.17,9.15 -6.22,2.69 -12.68,4.99 -18.22,9 -5.99,4.35 -11.81,8.65 -19.49,10.02 -4.44,0.79 -8.36,3.96 -11.3,7.32 -5.992,6.84 -12.379,13.36 -17.453,21.01 -7.707,11.64 -10.426,24.43 -10.215,37.84"
       style="fill:#fff;fill-opacity:1;fill-rule:evenodd;stroke:none"
       id="path26"
       inkscape:connector-curvature="0" /><path
       transform="scale(0.1)"
       d="m 1109.17,2310.05 c -2.05,-0.07 -3.65,0.12 -3.56,1.89 0.1,2.03 1.32,3.69 3.52,3.96 1.6,0.2 2.59,-1.05 2.9,-2.4 0.64,-2.75 -1.6,-3.01 -2.86,-3.45"
       style="fill:#fff;fill-opacity:1;fill-rule:evenodd;stroke:none"
       id="path28"
       inkscape:connector-curvature="0" /><path
       transform="scale(0.1)"
       d="m 1004.61,1824.42 c 5.36,1.42 5.36,1.42 7.7,-1.61 -2.96,-1.23 -4.72,3.11 -7.67,1.62 -0.01,0 -0.03,-0.01 -0.03,-0.01"
       style="fill:#fff;fill-opacity:1;fill-rule:evenodd;stroke:none"
       id="path30"
       inkscape:connector-curvature="0" /><path
       transform="scale(0.1)"
       d="m 1350.81,976.25 c -15.59,1.809 -30.2,3.531 -44.82,5.219 -3.96,0.441 -7.92,0.883 -11.88,1.16 -3.38,0.242 -4.2,2.07 -3.97,5.141 0.61,7.91 2.65,9.261 10.84,8.941 7.56,-0.289 15.17,0.309 22.76,0.641 10.3,0.449 20.44,-0.102 30.02,-4.43 5.56,-2.524 7.45,-5.582 6.44,-10.402 -1.01,-4.829 -3.78,-6.508 -9.39,-6.27"
       style="fill:#fff;fill-opacity:1;fill-rule:evenodd;stroke:none"
       id="path32"
       inkscape:connector-curvature="0" /><path
       transform="scale(0.1)"
       d="m 1108.92,2521.64 c 2.38,1.66 4.06,2.99 3.55,5.53 -0.06,0.34 -0.94,0.85 -1.25,0.73 -2.59,-0.88 -2.59,-3.04 -2.3,-6.26 z m -28.49,-2.27 c 0.17,0.9 -0.02,2.9 0.85,4.17 4.72,6.89 8.4,14.51 16.25,18.98 7.14,4.07 14.69,4.65 22.31,4.04 10.89,-0.88 18.67,-15.99 13.78,-25.68 -3.17,-6.28 -7.25,-11.48 -14.07,-14.18 -2.05,-0.82 -3.72,-2.56 -5.63,-3.77 -8.29,-5.28 -16.71,-4.85 -24.98,-0.16 -6,3.42 -8.16,9.17 -8.51,16.6"
       style="fill:#fff;fill-opacity:1;fill-rule:evenodd;stroke:none"
       id="path34"
       inkscape:connector-curvature="0" /></g></svg>